<?xml version="1.0" encoding="utf-8"?>
<!-- Generator: Adobe Illustrator 16.0.0, SVG Export Plug-In . SVG Version: 6.00 Build 0)  -->
<!DOCTYPE svg PUBLIC "-//W3C//DTD SVG 1.1//EN" "http://www.w3.org/Graphics/SVG/1.1/DTD/svg11.dtd">
<svg version="1.1" id="Layer_1" xmlns="http://www.w3.org/2000/svg" xmlns:xlink="http://www.w3.org/1999/xlink" x="0px" y="0px"
	 width="870px" height="300px" viewBox="-85 -40 870 300" enable-background="new -85 -40 870 300" xml:space="preserve">
<path fill="#CC9900" stroke="#CC9900" stroke-miterlimit="10" d="M-1.063,64.068c0,2.156-3.089,3.904-6.899,3.904h-59.794
	c-3.811,0-6.899-1.748-6.899-3.904V52.798c0-2.155,3.089-3.903,6.899-3.903h59.794c3.811,0,6.899,1.748,6.899,3.903V64.068z"/>
<line fill="none" stroke="#CC9900" stroke-width="4" stroke-miterlimit="10" x1="386.146" y1="154.861" x2="386.146" y2="93.045"/>
<line fill="none" stroke="#CC9900" stroke-width="4" stroke-miterlimit="10" x1="662.549" y1="161.589" x2="662.549" y2="127.195"/>
<line fill="none" stroke="#9900FF" stroke-width="4" stroke-miterlimit="10" x1="162.539" y1="162.173" x2="162.539" y2="58.433"/>
<line fill="none" stroke="#CC9900" stroke-width="4" stroke-miterlimit="10" x1="354.944" y1="57.965" x2="10.198" y2="57.965"/>
<line fill="none" stroke="#C83000" stroke-width="4" stroke-miterlimit="10" x1="692.324" y1="124.474" x2="473.195" y2="124.474"/>
<line fill="none" stroke="#00A818" stroke-width="4" stroke-miterlimit="10" x1="200.098" y1="124.474" x2="10.261" y2="124.474"/>
<line fill="none" stroke="#000888" stroke-width="4" stroke-miterlimit="10" x1="427.217" y1="157.029" x2="243.703" y2="157.029"/>
<path fill="none" stroke="#CC9900" stroke-width="4" stroke-miterlimit="10" d="M386.146,94.604
	c0-19.995-14.628-36.171-32.705-36.171"/>
<path fill="none" stroke="#9900FF" stroke-width="4" stroke-miterlimit="10" d="M311.419,194.296
	c20.214,0,36.569-14.63,36.569-32.707"/>
<path fill="none" stroke="#9900FF" stroke-width="4" stroke-miterlimit="10" d="M199.108,194.296
	c-20.213,0-36.569-14.63-36.569-32.707"/>
<line fill="none" stroke="#9900FF" stroke-width="4" stroke-miterlimit="10" x1="313.204" y1="194.296" x2="197.372" y2="194.296"/>
<line fill="none" stroke="#CC9900" stroke-width="4" stroke-miterlimit="10" x1="417.667" y1="195.658" x2="630.328" y2="195.658"/>
<path fill="none" stroke="#CC9900" stroke-width="4" stroke-miterlimit="10" d="M386.146,159.487
	c0,19.995,14.629,36.171,32.706,36.171"/>
<path fill="none" stroke="#CC9900" stroke-width="4" stroke-miterlimit="10" d="M662.549,159.487
	c0,19.995-14.629,36.171-32.705,36.171"/>
<path fill="#00A818" stroke="#00A818" stroke-miterlimit="10" d="M-1.063,129.891c0,2.155-3.09,3.907-6.899,3.907h-59.794
	c-3.811,0-6.899-1.752-6.899-3.907v-11.269c0-2.159,3.089-3.906,6.899-3.906h59.794c3.81,0,6.899,1.747,6.899,3.906V129.891z"/>
<circle fill="#FFFFFF" stroke="#00A818" stroke-miterlimit="10" cx="162.189" cy="124.474" r="4.542"/>
<circle fill="#FFFFFF" stroke="#CC9900" stroke-miterlimit="10" cx="161.878" cy="58.999" r="4.542"/>
<circle fill="#FFFFFF" stroke="#000888" stroke-miterlimit="10" cx="386.146" cy="157.631" r="4.542"/>
<circle fill="#FFFFFF" stroke="#C83000" stroke-miterlimit="10" cx="662.547" cy="124.256" r="4.542"/>
<circle fill="#FFFFFF" stroke="#C83000" stroke-miterlimit="10" cx="624.391" cy="124.256" r="4.542"/>
<circle fill="#FFFFFF" stroke="#C83000" stroke-miterlimit="10" cx="586.233" cy="124.256" r="4.542"/>
<circle fill="#FFFFFF" stroke="#C83000" stroke-miterlimit="10" cx="548.078" cy="124.256" r="4.542"/>
<circle fill="#FFFFFF" stroke="#C83000" stroke-miterlimit="10" cx="508.558" cy="124.256" r="4.542"/>
<circle fill="#FFFFFF" stroke="#000888" stroke-miterlimit="10" cx="347.989" cy="157.631" r="4.542"/>
<circle fill="#FFFFFF" stroke="#000888" stroke-miterlimit="10" cx="309.832" cy="157.631" r="4.542"/>
<circle fill="#FFFFFF" stroke="#000888" stroke-miterlimit="10" cx="271.676" cy="157.631" r="4.542"/>
<circle fill="#FFFFFF" stroke="#00A818" stroke-miterlimit="10" cx="124.034" cy="124.474" r="4.542"/>
<circle fill="#FFFFFF" stroke="#00A818" stroke-miterlimit="10" cx="87.24" cy="124.474" r="4.542"/>
<circle fill="#FFFFFF" stroke="#00A818" stroke-miterlimit="10" cx="49.083" cy="124.474" r="4.542"/>
<g>
	<g>
		<path fill="none" stroke="#000888" stroke-width="4" stroke-miterlimit="10" d="M220.54,141.514
			c0-9.47-10.362-17.136-23.167-17.136"/>
		<path fill="none" stroke="#000888" stroke-width="4" stroke-miterlimit="10" d="M220.54,139.896
			c0,9.473,10.361,17.133,23.167,17.133"/>
	</g>
</g>
<path fill="#9900FF" stroke="#9900FF" stroke-miterlimit="10" d="M152.107,102.91c0,2.155-3.089,3.902-6.899,3.902H85.414
	c-3.81,0-6.899-1.748-6.899-3.902V91.638c0-2.156,3.089-3.904,6.899-3.904h59.794c3.811,0,6.899,1.748,6.899,3.904V102.91z"/>
<path fill="#000888" stroke="#000888" stroke-miterlimit="10" d="M275.577,115.172c0,2.156-3.088,3.908-6.899,3.908h-59.793
	c-3.809,0-6.899-1.752-6.899-3.908v-11.27c0-2.155,3.09-3.903,6.899-3.903h59.793c3.811,0,6.899,1.749,6.899,3.903V115.172z"/>
<path fill="#C83000" stroke="#C83000" stroke-miterlimit="10" d="M775.375,129.206c0,2.154-3.091,3.904-6.9,3.904h-59.792
	c-3.813,0-6.899-1.75-6.899-3.904v-11.27c0-2.156,3.086-3.905,6.899-3.905h59.792c3.81,0,6.9,1.749,6.9,3.905V129.206z"/>
<g>
	<g>
		<path fill="none" stroke="#C83000" stroke-width="4" stroke-miterlimit="10" d="M450.194,139.99
			c0,9.47-10.361,17.133-23.166,17.133"/>
		<path fill="none" stroke="#C83000" stroke-width="4" stroke-miterlimit="10" d="M450.194,141.604
			c0-9.468,10.362-17.131,23.166-17.131"/>
	</g>
</g>
<ellipse fill="#CC9900" cx="9.984" cy="57.965" rx="2.551" ry="2.425"/>
<ellipse fill="#00A818" cx="10.261" cy="124.474" rx="2.51" ry="2.424"/>
<ellipse fill="#C83000" cx="691.858" cy="124.474" rx="2.515" ry="2.424"/>
<g>
	<path fill="#FFFFFF" d="M-47.92,55.82h1.824l1.927,5.84h0.028l1.854-5.84h1.736l-2.722,7.606h-1.883L-47.92,55.82z"/>
	<path fill="#FFFFFF" d="M-39.885,54.835c1.398,0,2.766-0.457,3-1.708h1.369v10.298h-1.84v-7.268h-2.53L-39.885,54.835
		L-39.885,54.835z"/>
	<path fill="#FFFFFF" d="M-34.084,53.129h7.045v1.397c-2.148,2.428-3.56,5.179-3.839,8.901h-1.839
		c0.235-3.267,1.839-6.385,3.972-8.797h-5.34L-34.084,53.129L-34.084,53.129z"/>
</g>
<g>
	<path d="M5.71,161l1.146-1.146l7.385,1.735l0.019-0.018l-4.56-4.563l1.032-1.03l6.19,6.188l-1.146,1.148l-7.368-1.734l-0.026,0.025
		l4.55,4.551l-1.03,1.029L5.71,161z"/>
	<path d="M16.681,158.438c0.701,0.702,1.707,0.946,2.53,0.122c0.582-0.581,0.668-1.169,0.347-1.837l0.936-0.938
		c0.772,1.188,0.468,2.583-0.501,3.554c-1.413,1.41-3.165,1.224-4.552-0.164c-1.274-1.274-1.533-3.197-0.198-4.534
		c1.413-1.412,3.553-1.005,4.733,0.502L16.681,158.438z M18.336,155.483c-0.668-0.581-1.639-0.736-2.316-0.062
		c-0.685,0.686-0.634,1.672,0.01,2.367L18.336,155.483z"/>
	<path d="M17.609,152.517l1.048-1.05l4.22,2.475l0.018-0.021l-2.504-4.188l0.997-0.996l4.152,2.54l0.017-0.018L23.124,147
		l1.004-1.002l3.078,5.884l-1.014,1.016L22.03,150.4l-0.017,0.018l2.506,4.151l-1.042,1.043L17.609,152.517z"/>
	<path d="M30.417,145.792c0.642,0.521,1.266,0.295,1.795-0.232c0.383-0.383,0.945-1.102,0.409-1.587
		c-0.548-0.495-1.328,0.165-2.211,0.72c-0.884,0.572-1.855,1.023-2.767,0.112c-0.978-0.979-0.225-2.341,0.59-3.154
		c0.918-0.921,2.131-1.388,3.249-0.49l-1.03,1.03c-0.573-0.385-1.067-0.128-1.509,0.313c-0.284,0.282-0.744,0.887-0.354,1.273
		c0.485,0.485,1.291-0.164,2.174-0.739c0.884-0.553,1.872-1.023,2.756-0.135c1.066,1.065,0.383,2.531-0.544,3.455
		c-1.136,1.139-2.463,1.458-3.546,0.428L30.417,145.792z"/>
	<path d="M29.317,137.393l0.989-0.989l0.938,0.937l-0.99,0.987L29.317,137.393z M31.026,139.099l0.988-0.99l4.482,4.479l-0.99,0.989
		L31.026,139.099z"/>
	<path d="M32.468,137.658l0.744-0.74l-1.344-1.348l0.988-0.988l1.345,1.345l0.893-0.894l0.737,0.735l-0.894,0.895l2.392,2.393
		c0.408,0.407,0.65,0.581,1.093,0.139c0.139-0.139,0.278-0.28,0.383-0.452l0.762,0.764c-0.19,0.239-0.374,0.478-0.589,0.69
		c-1.04,1.041-1.612,0.813-2.383,0.096l-2.643-2.645l-0.746,0.747L32.468,137.658z"/>
	<path d="M38.821,136.297c0.702,0.701,1.708,0.945,2.53,0.121c0.582-0.58,0.669-1.169,0.348-1.837l0.935-0.938
		c0.773,1.188,0.469,2.583-0.501,3.556c-1.413,1.41-3.165,1.218-4.551-0.169c-1.274-1.274-1.535-3.194-0.199-4.529
		c1.413-1.413,3.552-1.006,4.732,0.498L38.821,136.297z M40.478,133.342c-0.668-0.582-1.64-0.737-2.316-0.063
		c-0.685,0.686-0.633,1.672,0.009,2.367L40.478,133.342z"/>
</g>
<g>
	<path d="M44.643,169.98c0.944,0.943,2.028,0.623,2.894-0.242c0.955-0.953,0.834-1.787,0.374-2.245
		c-0.477-0.477-0.927-0.409-1.274-0.253c-0.605,0.277-1.265,0.711-2.357,1.336c-1.345,0.792-2.298,0.44-2.939-0.198
		c-1.25-1.251-0.677-2.966,0.441-4.085c1.282-1.281,3.059-1.689,4.351-0.394l-1.083,1.083c-0.858-0.74-1.674-0.511-2.427,0.238
		c-0.503,0.503-0.954,1.319-0.331,1.942c0.442,0.442,0.963,0.376,1.536,0.063c0.12-0.073,1.844-1.087,2.262-1.305
		c1.056-0.555,2.123-0.288,2.783,0.372c1.387,1.388,0.703,3.182-0.521,4.403c-1.413,1.413-3.233,1.883-4.793,0.373L44.643,169.98z"
		/>
	<path d="M46.909,162.879l0.936-0.936l0.625,0.623l0.026-0.027c-0.137-0.745-0.085-1.403,0.635-2.121
		c0.545-0.544,1.291-0.825,2.001-0.514c-0.122-0.793,0-1.489,0.66-2.148c0.945-0.945,1.923-1.076,3.007,0.012l3.094,3.093
		l-0.988,0.989l-2.618-2.618c-0.72-0.719-1.25-1.162-2.02-0.388c-0.667,0.668-0.521,1.387,0.242,2.149l2.627,2.63l-0.989,0.988
		l-2.879-2.879c-0.623-0.625-1.136-0.754-1.731-0.156c-0.512,0.511-0.556,1.405,0.182,2.141l2.66,2.66l-0.988,0.99L46.909,162.879z"
		/>
	<path d="M61.554,155.202c0.243,0.244,0.389,0.284,0.571,0.105l0.106-0.105c0.043-0.043,0.077-0.095,0.121-0.156l0.685,0.686
		c-0.096,0.198-0.346,0.572-0.51,0.737c-0.407,0.407-0.824,0.546-1.309,0.216c-0.009,0.775-0.479,1.569-1.004,2.103
		c-0.808,0.802-1.969,1.098-2.844,0.225c-1.118-1.114-0.407-2.192,0.329-3.121c0.583-0.854,1.302-1.387,0.711-1.973
		c-0.52-0.521-1.146-0.073-1.535,0.32c-0.554,0.555-0.72,1.17-0.277,1.699l-0.99,0.989c-1.083-1.223-0.45-2.53,0.546-3.529
		c0.876-0.874,2.15-1.438,3.095-0.491L61.554,155.202z M59.316,154.943c-0.104,0.5-0.581,0.961-0.946,1.48
		c-0.355,0.492-0.581,1.032-0.062,1.552c0.452,0.452,1.136,0.01,1.483-0.337c0.434-0.434,0.885-1.335,0.259-1.96L59.316,154.943z"/>
	<path d="M57.456,148.916l0.99-0.992l6.188,6.192l-0.989,0.989L57.456,148.916z"/>
	<path d="M59.346,147.025l0.989-0.988l6.188,6.189l-0.988,0.986L59.346,147.025z"/>
	<path d="M68.754,147.119c0.641,0.52,1.264,0.294,1.794-0.23c0.382-0.385,0.946-1.099,0.407-1.587
		c-0.545-0.494-1.326,0.165-2.21,0.719c-0.884,0.572-1.855,1.023-2.766,0.113c-0.979-0.979-0.226-2.337,0.588-3.152
		c0.92-0.919,2.132-1.386,3.25-0.493l-1.031,1.031c-0.571-0.382-1.066-0.13-1.508,0.313c-0.286,0.286-0.744,0.885-0.355,1.273
		c0.486,0.485,1.293-0.164,2.176-0.736c0.885-0.555,1.871-1.023,2.755-0.139c1.066,1.065,0.384,2.532-0.544,3.459
		c-1.134,1.135-2.462,1.456-3.546,0.424L68.754,147.119z"/>
	<path d="M67.655,138.717l0.988-0.988l0.938,0.936l-0.99,0.987L67.655,138.717z M69.363,140.424l0.988-0.988l4.482,4.479l-0.99,0.99
		L69.363,140.424z"/>
	<path d="M70.803,138.986l0.746-0.743l-1.344-1.348l0.987-0.987l1.345,1.344l0.894-0.894l0.737,0.737l-0.893,0.895l2.39,2.391
		c0.408,0.407,0.651,0.583,1.093,0.139c0.139-0.139,0.279-0.278,0.383-0.45l0.763,0.762c-0.192,0.241-0.375,0.479-0.589,0.692
		c-1.042,1.042-1.612,0.815-2.383,0.096l-2.644-2.643l-0.745,0.745L70.803,138.986z"/>
	<path d="M77.157,137.623c0.701,0.702,1.708,0.944,2.532,0.119c0.58-0.579,0.667-1.168,0.346-1.837l0.936-0.937
		c0.772,1.188,0.47,2.585-0.502,3.556c-1.412,1.409-3.163,1.218-4.55-0.17c-1.274-1.273-1.534-3.193-0.2-4.528
		c1.413-1.413,3.553-1.006,4.732,0.499L77.157,137.623z M78.813,134.667c-0.667-0.582-1.639-0.737-2.315-0.063
		c-0.686,0.686-0.633,1.672,0.01,2.368L78.813,134.667z"/>
</g>
<g>
	<path d="M16.024,235.205c0.944,0.943,2.028,0.625,2.894-0.242c0.955-0.953,0.834-1.786,0.374-2.244
		c-0.478-0.479-0.927-0.41-1.274-0.252c-0.605,0.279-1.264,0.71-2.357,1.335c-1.344,0.791-2.297,0.439-2.938-0.199
		c-1.25-1.251-0.677-2.966,0.441-4.081c1.282-1.281,3.059-1.688,4.351-0.397l-1.083,1.084c-0.858-0.738-1.673-0.508-2.427,0.241
		c-0.503,0.502-0.954,1.318-0.332,1.942c0.443,0.439,0.963,0.375,1.536,0.06c0.121-0.069,1.844-1.083,2.262-1.305
		c1.056-0.555,2.123-0.285,2.783,0.373c1.388,1.388,0.703,3.18-0.52,4.402c-1.413,1.412-3.233,1.883-4.793,0.373L16.024,235.205z"/>
	<path d="M16.495,226.483l0.99-0.99l0.936,0.938l-0.989,0.991L16.495,226.483z M18.203,228.19l0.99-0.989l4.479,4.479l-0.988,0.991
		L18.203,228.19z"/>
	<path d="M19.644,226.748l0.744-0.744l-1.344-1.343l0.989-0.988l1.345,1.344l0.894-0.895l0.735,0.738l-0.891,0.894l2.39,2.394
		c0.409,0.407,0.652,0.582,1.093,0.137c0.138-0.137,0.278-0.279,0.381-0.448l0.765,0.762c-0.192,0.24-0.375,0.477-0.59,0.69
		c-1.042,1.042-1.611,0.817-2.384,0.096l-2.643-2.642l-0.745,0.743L19.644,226.748z"/>
	<path d="M25.998,225.388c0.701,0.702,1.708,0.944,2.532,0.12c0.579-0.58,0.666-1.169,0.344-1.837l0.937-0.937
		c0.772,1.188,0.469,2.584-0.501,3.555c-1.413,1.413-3.163,1.222-4.55-0.166c-1.274-1.274-1.536-3.197-0.2-4.532
		c1.412-1.413,3.553-1.006,4.732,0.504L25.998,225.388z M27.653,222.432c-0.667-0.581-1.639-0.738-2.314-0.062
		c-0.686,0.687-0.633,1.673,0.009,2.369L27.653,222.432z"/>
	<path d="M29.071,217.322l1.048-1.047l4.22,2.47l0.019-0.02l-2.506-4.184l0.997-0.997l4.15,2.539l0.019-0.017l-2.435-4.257
		l1.005-1.008l3.076,5.888l-1.013,1.012l-4.162-2.494l-0.019,0.019l2.506,4.151l-1.042,1.043L29.071,217.322z"/>
	<path d="M34.362,208.616l0.989-0.989l0.936,0.938l-0.988,0.987L34.362,208.616z M36.069,210.324l0.989-0.989l4.48,4.482
		l-0.987,0.986L36.069,210.324z"/>
	<path d="M37.509,208.885l0.746-0.745l-1.344-1.346l0.988-0.987l1.344,1.343l0.895-0.893l0.736,0.737l-0.893,0.895l2.392,2.391
		c0.407,0.406,0.65,0.584,1.092,0.139c0.139-0.139,0.279-0.277,0.382-0.45l0.764,0.761c-0.192,0.244-0.374,0.478-0.591,0.695
		c-1.04,1.039-1.61,0.814-2.382,0.094l-2.644-2.643l-0.744,0.746L37.509,208.885z"/>
	<path d="M39.087,203.89l0.99-0.989l2.297,2.297l0.017-0.016c-0.165-0.649,0.043-1.465,0.633-2.056
		c0.98-0.982,2.099-1.073,3.112-0.064l3.077,3.08l-0.988,0.99l-2.817-2.818c-0.729-0.675-1.292-0.721-1.88-0.129
		c-0.659,0.658-0.564,1.603,0.096,2.262l2.642,2.644l-0.987,0.988L39.087,203.89z"/>
	<path d="M47.093,199.3l0.735-0.738l-0.373-0.374c-1.144-1.146-0.737-1.934-0.094-2.579c0.32-0.32,0.563-0.528,0.754-0.633
		l0.77,0.772c-0.164,0.096-0.312,0.208-0.512,0.406c-0.268,0.271-0.39,0.582-0.017,0.954l0.46,0.46l0.841-0.845l0.736,0.741
		l-0.841,0.841l3.745,3.744l-0.988,0.987l-3.744-3.744l-0.739,0.741L47.093,199.3z"/>
	<path d="M50.25,196.144l0.927-0.929l0.866,0.868l0.018-0.021c-0.363-0.589-0.277-1.699,0.321-2.294
		c0.233-0.235,0.295-0.264,0.399-0.348l0.953,0.95c-0.166,0.116-0.33,0.243-0.469,0.385c-0.667,0.668-0.677,1.751,0.321,2.748
		l2.132,2.129l-0.989,0.992L50.25,196.144z"/>
	<path d="M56.44,194.946c0.701,0.701,1.707,0.947,2.53,0.121c0.581-0.58,0.667-1.166,0.346-1.835l0.936-0.939
		c0.772,1.188,0.469,2.585-0.501,3.555c-1.413,1.413-3.164,1.222-4.551-0.165c-1.274-1.275-1.535-3.198-0.198-4.533
		c1.412-1.413,3.552-1.005,4.732,0.503L56.44,194.946z M58.095,191.99c-0.667-0.585-1.639-0.741-2.316-0.063
		c-0.686,0.687-0.633,1.67,0.01,2.368L58.095,191.99z"/>
	<path d="M68.439,190.229l-0.989,0.988l-2.236-2.237L65.197,189c0.166,0.824-0.208,1.61-0.798,2.201
		c-1.317,1.317-3.058,0.808-4.273-0.407c-1.317-1.313-1.699-3.068-0.284-4.478c0.582-0.584,1.317-0.901,2.116-0.659l0.017-0.021
		l-0.605-0.603l0.937-0.94L68.439,190.229z M63.914,190.124c0.858-0.859,0.615-1.898-0.32-2.836
		c-0.98-0.979-2.013-1.162-2.843-0.332c-0.814,0.815-0.46,2.02,0.347,2.829C61.876,190.565,63.012,191.025,63.914,190.124z"/>
	<path d="M71.563,183.793l-0.97,0.971l-0.626-0.623l-0.017,0.018c0.208,0.692-0.033,1.525-0.53,2.019
		c-1.178,1.179-2.253,1.092-3.434-0.086l-2.84-2.844l0.987-0.986l2.747,2.745c0.791,0.791,1.388,0.764,1.934,0.218
		c0.824-0.824,0.573-1.63-0.123-2.324l-2.598-2.599l0.989-0.99L71.563,183.793z"/>
	<path d="M71.21,180.176c0.701,0.701,1.708,0.946,2.53,0.126c0.583-0.585,0.668-1.171,0.348-1.839l0.936-0.939
		c0.772,1.189,0.467,2.583-0.503,3.555c-1.413,1.412-3.164,1.223-4.551-0.164c-1.275-1.274-1.534-3.199-0.198-4.535
		c1.413-1.411,3.554-1.006,4.733,0.503L71.21,180.176z M72.865,177.22c-0.668-0.581-1.639-0.737-2.315-0.06
		c-0.686,0.687-0.634,1.671,0.01,2.366L72.865,177.22z"/>
	<path d="M72.703,173.691l0.936-0.937l0.659,0.657h0.034c-0.19-0.797,0.008-1.604,0.597-2.193c0.98-0.979,2.099-1.074,3.112-0.06
		l3.079,3.075l-0.99,0.99l-2.817-2.817c-0.728-0.677-1.292-0.721-1.88-0.127c-0.659,0.656-0.563,1.604,0.096,2.263l2.643,2.644
		l-0.988,0.988L72.703,173.691z"/>
	<path d="M76.929,169.466l0.745-0.745l-1.345-1.345l0.989-0.989l1.344,1.346l0.893-0.893l0.737,0.737l-0.893,0.892l2.392,2.392
		c0.408,0.408,0.65,0.581,1.093,0.139c0.137-0.138,0.278-0.276,0.382-0.45l0.763,0.764c-0.191,0.242-0.375,0.477-0.589,0.691
		c-1.041,1.042-1.612,0.815-2.383,0.097l-2.644-2.643l-0.744,0.741L76.929,169.466z"/>
	<path d="M82.192,164.202l0.927-0.927l0.868,0.864l0.017-0.021c-0.365-0.588-0.279-1.698,0.321-2.295
		c0.234-0.23,0.294-0.261,0.399-0.346l0.952,0.951c-0.164,0.117-0.33,0.243-0.468,0.384c-0.667,0.666-0.676,1.751,0.321,2.747
		l2.132,2.13l-0.989,0.989L82.192,164.202z"/>
	<path d="M88.382,163.005c0.702,0.702,1.708,0.945,2.532,0.12c0.581-0.58,0.666-1.166,0.344-1.834l0.938-0.938
		c0.771,1.187,0.468,2.582-0.501,3.553c-1.413,1.413-3.164,1.221-4.551-0.165c-1.274-1.274-1.536-3.198-0.199-4.533
		c1.411-1.413,3.553-1.006,4.731,0.504L88.382,163.005z M90.037,160.048c-0.667-0.581-1.639-0.737-2.314-0.06
		c-0.686,0.688-0.633,1.672,0.009,2.366L90.037,160.048z"/>
	<path d="M88.193,154.785l0.989-0.99l6.189,6.189l-0.988,0.988L88.193,154.785z"/>
	<path d="M95.051,156.335c0.701,0.702,1.709,0.943,2.531,0.12c0.581-0.58,0.667-1.169,0.345-1.837l0.937-0.936
		c0.771,1.187,0.47,2.583-0.501,3.553c-1.414,1.41-3.164,1.223-4.551-0.168c-1.274-1.271-1.536-3.195-0.199-4.529
		c1.413-1.413,3.553-1.007,4.732,0.503L95.051,156.335z M96.708,153.379c-0.668-0.582-1.64-0.738-2.316-0.062
		c-0.686,0.684-0.633,1.674,0.01,2.368L96.708,153.379z"/>
	<path d="M103.818,149.545c0.243,0.243,0.389,0.286,0.571,0.104l0.104-0.104c0.043-0.043,0.078-0.095,0.122-0.157l0.686,0.686
		c-0.096,0.198-0.346,0.572-0.51,0.741c-0.408,0.403-0.824,0.542-1.31,0.216c-0.007,0.771-0.478,1.565-1.005,2.098
		c-0.806,0.807-1.967,1.099-2.842,0.229c-1.119-1.119-0.409-2.194,0.329-3.122c0.583-0.856,1.301-1.389,0.711-1.976
		c-0.52-0.52-1.146-0.07-1.535,0.321c-0.555,0.555-0.719,1.171-0.278,1.7l-0.989,0.987c-1.083-1.22-0.45-2.53,0.546-3.528
		c0.876-0.875,2.15-1.438,3.095-0.49L103.818,149.545z M101.581,149.285c-0.106,0.503-0.581,0.96-0.945,1.481
		c-0.355,0.494-0.581,1.031-0.062,1.552c0.451,0.452,1.136,0.009,1.483-0.338c0.434-0.434,0.884-1.335,0.258-1.958L101.581,149.285z
		"/>
	<path d="M105.189,147.288c0.642,0.521,1.264,0.296,1.794-0.233c0.383-0.382,0.946-1.099,0.408-1.586
		c-0.546-0.494-1.326,0.165-2.21,0.719c-0.884,0.572-1.854,1.022-2.766,0.112c-0.978-0.979-0.226-2.34,0.589-3.151
		c0.919-0.919,2.132-1.391,3.25-0.493l-1.03,1.031c-0.571-0.384-1.066-0.129-1.508,0.314c-0.286,0.282-0.744,0.884-0.355,1.273
		c0.485,0.485,1.293-0.168,2.176-0.74c0.885-0.554,1.872-1.023,2.756-0.139c1.066,1.065,0.383,2.529-0.544,3.459
		c-1.136,1.136-2.463,1.456-3.547,0.425L105.189,147.288z"/>
	<path d="M109.015,142.372c0.702,0.701,1.708,0.944,2.53,0.12c0.581-0.581,0.667-1.17,0.346-1.838l0.938-0.935
		c0.771,1.187,0.467,2.58-0.503,3.551c-1.413,1.413-3.165,1.225-4.552-0.163c-1.274-1.273-1.533-3.199-0.199-4.535
		c1.413-1.412,3.554-1.004,4.733,0.504L109.015,142.372z M110.669,139.416c-0.668-0.58-1.639-0.738-2.314-0.061
		c-0.686,0.685-0.635,1.672,0.009,2.366L110.669,139.416z"/>
	<path d="M114.365,138.111c0.642,0.522,1.266,0.295,1.794-0.231c0.383-0.384,0.945-1.099,0.408-1.588
		c-0.546-0.491-1.327,0.168-2.211,0.723c-0.884,0.572-1.854,1.024-2.766,0.112c-0.979-0.979-0.225-2.339,0.59-3.152
		c0.919-0.92,2.132-1.388,3.249-0.493l-1.031,1.032c-0.572-0.384-1.066-0.129-1.508,0.312c-0.285,0.285-0.745,0.884-0.355,1.274
		c0.486,0.486,1.292-0.165,2.176-0.738c0.884-0.553,1.872-1.02,2.756-0.136c1.066,1.066,0.381,2.529-0.545,3.456
		c-1.136,1.136-2.463,1.456-3.546,0.425L114.365,138.111z"/>
</g>
<g>
	<path d="M627.99,110.199l1.146-1.144l7.385,1.734l0.019-0.017l-4.56-4.561l1.031-1.032l6.19,6.188l-1.146,1.146l-7.367-1.734
		l-0.025,0.027l4.55,4.55l-1.03,1.029L627.99,110.199z"/>
	<path d="M638.959,107.64c0.699,0.702,1.708,0.944,2.53,0.122c0.584-0.581,0.668-1.17,0.347-1.839l0.937-0.936
		c0.773,1.188,0.472,2.583-0.498,3.553c-1.414,1.414-3.165,1.223-4.554-0.164c-1.273-1.274-1.533-3.198-0.197-4.534
		c1.41-1.413,3.551-1.006,4.73,0.503L638.959,107.64z M640.615,104.685c-0.669-0.581-1.639-0.736-2.315-0.062
		c-0.688,0.685-0.638,1.673,0.01,2.368L640.615,104.685z"/>
	<path d="M643.807,102.792c0.699,0.702,1.707,0.944,2.53,0.122c0.579-0.58,0.669-1.17,0.348-1.838l0.934-0.937
		c0.772,1.188,0.47,2.584-0.501,3.554c-1.409,1.412-3.165,1.223-4.551-0.165c-1.274-1.274-1.535-3.197-0.199-4.533
		c1.413-1.413,3.553-1.005,4.732,0.502L643.807,102.792z M645.464,99.837c-0.668-0.582-1.641-0.737-2.316-0.063
		c-0.688,0.685-0.636,1.674,0.01,2.368L645.464,99.837z"/>
	<path d="M654.149,96.419l-0.936,0.936l-0.607-0.607l-0.021,0.017c0.253,0.789-0.092,1.553-0.656,2.116
		c-1.412,1.414-3.145,1.049-4.488-0.294c-1.631-1.63-1.369-3.294-0.39-4.273c0.553-0.554,1.394-0.98,2.191-0.79l0.019-0.017
		l-2.286-2.29l0.988-0.987L654.149,96.419z M651.281,97.97c0.875-0.876,0.451-2.063-0.333-2.844
		c-0.996-0.997-2.054-1.102-2.817-0.338c-0.927,0.927-0.424,2.089,0.376,2.887C649.278,98.447,650.422,98.828,651.281,97.97z"/>
	<path d="M652.039,89.567l0.738-0.737l-0.374-0.373c-1.147-1.144-0.739-1.932-0.096-2.575c0.321-0.32,0.564-0.528,0.754-0.632
		l0.772,0.77c-0.167,0.096-0.312,0.209-0.51,0.409c-0.27,0.269-0.392,0.582-0.024,0.953l0.461,0.46L654.604,87l0.738,0.737
		l-0.841,0.842l3.744,3.744l-0.989,0.989l-3.748-3.745l-0.734,0.737L652.039,89.567z"/>
	<path d="M663.612,86.956l-0.97,0.972l-0.626-0.625L662,87.32c0.209,0.693-0.034,1.525-0.532,2.019
		c-1.178,1.178-2.253,1.091-3.432-0.088l-2.843-2.841l0.99-0.988l2.747,2.748c0.79,0.79,1.388,0.763,1.931,0.215
		c0.823-0.823,0.574-1.628-0.123-2.322l-2.599-2.6l0.989-0.989L663.612,86.956z"/>
	<path d="M658.293,79.897l0.988-0.988l6.193,6.189l-0.992,0.989L658.293,79.897z"/>
	<path d="M660.185,78.006l0.987-0.988l6.191,6.188l-0.991,0.989L660.185,78.006z"/>
	<path d="M664.051,74.14l0.989-0.989l6.188,6.189l-0.986,0.988L664.051,74.14z"/>
	<path d="M669.679,76.402c-1.362-1.362-1.526-3.19-0.097-4.621c1.432-1.431,3.261-1.266,4.621,0.095
		c1.377,1.379,1.535,3.198,0.104,4.63C672.876,77.936,671.058,77.778,669.679,76.402z M673.216,72.864
		c-0.773-0.771-1.968-1.188-2.853-0.304c-0.885,0.883-0.468,2.081,0.304,2.852c0.779,0.78,1.978,1.196,2.86,0.312
		C674.412,74.84,673.995,73.644,673.216,72.864z"/>
	<path d="M677.283,67.322c-0.637-0.477-1.31-0.373-1.866,0.182c-0.511,0.511-0.951,1.507,0.398,2.86
		c0.744,0.746,1.864,1.204,2.721,0.347c0.587-0.582,0.6-1.343,0.044-2.089l0.989-0.988c0.99,1.353,0.901,2.705-0.251,3.857
		c-1.404,1.404-3.172,1.178-4.487-0.139c-1.354-1.353-1.674-3.146-0.199-4.62c1.041-1.041,2.444-1.405,3.641-0.398L677.283,67.322z"
		/>
	<path d="M684.663,63.914c0.241,0.242,0.39,0.286,0.571,0.104l0.104-0.104c0.043-0.043,0.08-0.096,0.126-0.156l0.684,0.685
		c-0.094,0.199-0.347,0.572-0.511,0.737c-0.408,0.407-0.823,0.546-1.306,0.217c-0.012,0.771-0.479,1.569-1.005,2.098
		c-0.807,0.807-1.969,1.1-2.844,0.226c-1.118-1.119-0.407-2.193,0.333-3.12c0.58-0.857,1.299-1.386,0.709-1.977
		c-0.523-0.52-1.146-0.069-1.534,0.322c-0.555,0.555-0.722,1.17-0.281,1.698l-0.986,0.988c-1.086-1.222-0.451-2.53,0.543-3.527
		c0.877-0.875,2.149-1.439,3.093-0.495L684.663,63.914z M682.426,63.654c-0.104,0.502-0.581,0.961-0.944,1.481
		c-0.355,0.494-0.586,1.031-0.062,1.552c0.447,0.451,1.137,0.008,1.481-0.338c0.435-0.435,0.885-1.334,0.262-1.96L682.426,63.654z"
		/>
	<path d="M680.563,57.627l0.989-0.989l6.189,6.189l-0.988,0.989L680.563,57.627z"/>
	<path d="M687.423,59.177c0.701,0.702,1.707,0.946,2.53,0.122c0.581-0.582,0.667-1.17,0.343-1.838l0.939-0.936
		c0.772,1.188,0.469,2.583-0.502,3.554c-1.412,1.414-3.164,1.223-4.551-0.164c-1.275-1.275-1.535-3.199-0.2-4.533
		c1.41-1.413,3.551-1.007,4.73,0.503L687.423,59.177z M689.077,56.222c-0.667-0.582-1.639-0.738-2.313-0.062
		c-0.686,0.685-0.633,1.672,0.009,2.366L689.077,56.222z"/>
	<path d="M694.75,52.941c0.643,0.521,1.266,0.294,1.798-0.234c0.381-0.382,0.944-1.101,0.406-1.586
		c-0.545-0.494-1.325,0.165-2.214,0.718c-0.884,0.573-1.854,1.023-2.764,0.112c-0.979-0.979-0.226-2.339,0.589-3.155
		c0.92-0.918,2.128-1.387,3.247-0.494l-1.032,1.031c-0.571-0.381-1.066-0.13-1.507,0.312c-0.286,0.287-0.745,0.885-0.357,1.274
		c0.485,0.486,1.295-0.165,2.176-0.737c0.885-0.554,1.871-1.023,2.755-0.139c1.065,1.066,0.383,2.531-0.545,3.458
		c-1.136,1.136-2.461,1.457-3.546,0.425L694.75,52.941z"/>
	<path d="M703.749,46.818l-0.97,0.972l-0.626-0.625l-0.017,0.018c0.209,0.693-0.035,1.526-0.529,2.019
		c-1.179,1.178-2.257,1.093-3.436-0.087l-2.84-2.842l0.988-0.988l2.748,2.747c0.788,0.791,1.388,0.763,1.933,0.218
		c0.823-0.823,0.571-1.63-0.125-2.323l-2.597-2.601l0.988-0.988L703.749,46.818z"/>
	<path d="M700.112,41.495l0.939-0.937l0.606,0.605l0.018-0.017c-0.243-0.797,0.077-1.533,0.66-2.114
		c1.409-1.413,3.162-1.031,4.477,0.286c1.214,1.213,1.725,2.956,0.407,4.274c-0.571,0.571-1.404,0.987-2.202,0.797l-0.017,0.017
		l2.236,2.237l-0.991,0.988L700.112,41.495z M702.982,39.942c-0.835,0.833-0.634,1.881,0.332,2.843
		c0.901,0.901,2.037,1.119,2.836,0.32c0.899-0.9,0.44-2.037-0.336-2.816C705.001,39.484,703.796,39.128,702.982,39.942z"/>
	<path d="M705.203,36.403l0.938-0.937l0.605,0.605l0.02-0.017c-0.241-0.798,0.077-1.533,0.657-2.115
		c1.412-1.413,3.163-1.031,4.48,0.286c1.214,1.212,1.725,2.956,0.407,4.273c-0.572,0.573-1.405,0.988-2.201,0.797l-0.019,0.017
		l2.235,2.236l-0.99,0.988L705.203,36.403z M708.072,34.851c-0.832,0.833-0.633,1.88,0.333,2.844
		c0.896,0.901,2.032,1.118,2.834,0.321c0.9-0.901,0.441-2.037-0.339-2.817C710.091,34.393,708.887,34.037,708.072,34.851z"/>
	<path d="M712.418,33.663c-1.357-1.362-1.525-3.19-0.097-4.621c1.431-1.43,3.262-1.266,4.625,0.096
		c1.378,1.378,1.533,3.199,0.104,4.629C715.619,35.196,713.795,35.04,712.418,33.663z M715.953,30.125
		c-0.771-0.771-1.966-1.188-2.847-0.304c-0.886,0.884-0.472,2.08,0.302,2.852c0.78,0.78,1.974,1.196,2.857,0.312
		C717.151,32.1,716.735,30.905,715.953,30.125z"/>
	<path d="M715.377,26.23l0.927-0.927l0.867,0.867l0.017-0.018c-0.364-0.589-0.276-1.698,0.325-2.297
		c0.23-0.233,0.291-0.26,0.395-0.347l0.954,0.953c-0.164,0.113-0.33,0.243-0.47,0.382c-0.667,0.667-0.675,1.751,0.321,2.749
		l2.133,2.132l-0.988,0.989L715.377,26.23z"/>
	<path d="M718.508,23.1l0.744-0.745l-1.345-1.344l0.99-0.989l1.345,1.345l0.895-0.893l0.736,0.737l-0.893,0.893l2.389,2.392
		c0.407,0.409,0.65,0.582,1.097,0.139c0.137-0.139,0.276-0.278,0.38-0.451l0.764,0.763c-0.19,0.243-0.373,0.476-0.588,0.692
		c-1.042,1.041-1.61,0.816-2.383,0.096l-2.643-2.644l-0.742,0.745L718.508,23.1z"/>
</g>
<g>
	<path d="M282.045,147.68c0.945,0.946,2.028,0.625,2.893-0.238c0.954-0.954,0.834-1.785,0.375-2.244
		c-0.478-0.48-0.928-0.407-1.275-0.252c-0.606,0.281-1.265,0.711-2.357,1.334c-1.345,0.793-2.297,0.44-2.939-0.198
		c-1.25-1.252-0.677-2.964,0.441-4.081c1.281-1.285,3.059-1.692,4.351-0.398l-1.083,1.084c-0.859-0.74-1.675-0.511-2.428,0.243
		c-0.503,0.502-0.955,1.314-0.331,1.94c0.443,0.44,0.963,0.374,1.536,0.063c0.12-0.073,1.845-1.085,2.261-1.31
		c1.057-0.554,2.123-0.285,2.784,0.373c1.387,1.388,0.703,3.182-0.521,4.403c-1.413,1.414-3.233,1.881-4.793,0.377L282.045,147.68z"
		/>
	<path d="M282.515,138.958l0.99-0.988l0.936,0.937l-0.989,0.988L282.515,138.958z M284.222,140.665l0.99-0.986l4.479,4.479
		l-0.987,0.989L284.222,140.665z"/>
	<path d="M285.664,139.226l0.745-0.744l-1.345-1.345l0.989-0.989l1.344,1.344l0.894-0.892l0.736,0.735l-0.892,0.894l2.391,2.392
		c0.409,0.409,0.651,0.585,1.092,0.139c0.139-0.137,0.278-0.278,0.381-0.45l0.765,0.764c-0.191,0.243-0.374,0.477-0.59,0.692
		c-1.042,1.04-1.61,0.815-2.383,0.096l-2.643-2.643l-0.745,0.743L285.664,139.226z"/>
	<path d="M292.019,137.862c0.702,0.702,1.708,0.946,2.531,0.126c0.581-0.583,0.666-1.169,0.345-1.837l0.937-0.941
		c0.772,1.192,0.469,2.584-0.501,3.555c-1.413,1.412-3.163,1.223-4.55-0.164c-1.275-1.274-1.536-3.198-0.2-4.534
		c1.412-1.412,3.553-1.005,4.732,0.503L292.019,137.862z M293.674,134.908c-0.667-0.585-1.639-0.74-2.315-0.062
		c-0.685,0.685-0.632,1.668,0.01,2.366L293.674,134.908z"/>
	<path d="M295.092,129.799l1.047-1.049l4.221,2.47l0.018-0.017l-2.506-4.188l0.998-0.996l4.151,2.538l0.018-0.021l-2.435-4.26
		l1.006-1.001l3.076,5.885l-1.014,1.015l-4.162-2.495l-0.018,0.021l2.506,4.151l-1.042,1.039L295.092,129.799z"/>
	<path d="M300.381,121.092l0.99-0.987l0.936,0.936l-0.989,0.988L300.381,121.092z M302.089,122.799l0.99-0.986l4.479,4.477
		l-0.987,0.992L302.089,122.799z"/>
	<path d="M303.53,121.36l0.745-0.742l-1.344-1.348l0.989-0.988l1.344,1.346l0.894-0.894l0.736,0.734l-0.893,0.896l2.392,2.392
		c0.406,0.408,0.649,0.581,1.093,0.14c0.138-0.14,0.278-0.282,0.38-0.453l0.764,0.765c-0.19,0.241-0.374,0.476-0.592,0.689
		c-1.039,1.043-1.609,0.813-2.381,0.096l-2.643-2.64l-0.744,0.742L303.53,121.36z"/>
	<path d="M305.108,116.364l0.99-0.986l2.297,2.297l0.017-0.021c-0.166-0.65,0.042-1.461,0.633-2.055
		c0.98-0.982,2.099-1.076,3.111-0.063l3.078,3.08l-0.989,0.988l-2.817-2.817c-0.729-0.679-1.292-0.72-1.881-0.126
		c-0.659,0.658-0.564,1.603,0.096,2.264l2.642,2.642l-0.987,0.989L305.108,116.364z"/>
	<path d="M311.89,109.583l0.989-0.988l6.19,6.19l-0.989,0.988L311.89,109.583z"/>
	<path d="M318.749,111.135c0.702,0.701,1.708,0.946,2.53,0.124c0.581-0.583,0.667-1.17,0.346-1.839l0.937-0.936
		c0.772,1.187,0.469,2.583-0.502,3.554c-1.413,1.411-3.164,1.222-4.55-0.165c-1.274-1.275-1.535-3.198-0.2-4.534
		c1.413-1.412,3.554-1.006,4.733,0.503L318.749,111.135z M320.404,108.178c-0.667-0.581-1.639-0.736-2.314-0.06
		c-0.686,0.683-0.634,1.672,0.01,2.366L320.404,108.178z"/>
	<path d="M324.099,106.875c0.642,0.521,1.266,0.295,1.796-0.234c0.382-0.381,0.944-1.101,0.407-1.586
		c-0.547-0.495-1.327,0.164-2.211,0.718c-0.884,0.572-1.854,1.023-2.766,0.113c-0.979-0.979-0.225-2.34,0.589-3.154
		c0.919-0.92,2.132-1.388,3.25-0.495l-1.032,1.032c-0.574-0.381-1.066-0.13-1.508,0.312c-0.286,0.286-0.745,0.884-0.355,1.274
		c0.486,0.486,1.291-0.164,2.176-0.737c0.884-0.554,1.872-1.023,2.755-0.138c1.066,1.065,0.382,2.531-0.545,3.458
		c-1.136,1.136-2.463,1.458-3.545,0.425L324.099,106.875z"/>
	<path d="M328.626,102.348c0.64,0.521,1.265,0.294,1.794-0.234c0.382-0.381,0.945-1.1,0.409-1.586
		c-0.547-0.495-1.326,0.165-2.211,0.719c-0.884,0.572-1.855,1.023-2.766,0.112c-0.978-0.978-0.225-2.339,0.591-3.154
		c0.917-0.918,2.132-1.387,3.249-0.495l-1.032,1.033c-0.572-0.382-1.066-0.13-1.508,0.312c-0.285,0.286-0.745,0.884-0.355,1.274
		c0.485,0.485,1.292-0.165,2.175-0.738c0.885-0.555,1.874-1.023,2.757-0.138c1.066,1.065,0.382,2.531-0.545,3.458
		c-1.136,1.134-2.463,1.456-3.547,0.425L328.626,102.348z"/>
	<path d="M330.762,94.127l0.745-0.746l-1.344-1.345l0.99-0.988l1.344,1.344l0.893-0.893l0.737,0.737l-0.894,0.893l2.393,2.392
		c0.408,0.409,0.648,0.581,1.092,0.138c0.139-0.138,0.278-0.277,0.381-0.45l0.763,0.762c-0.189,0.244-0.373,0.477-0.589,0.694
		c-1.041,1.04-1.611,0.815-2.384,0.095l-2.642-2.644l-0.746,0.746L330.762,94.127z"/>
	<path d="M334.05,90.841l0.927-0.928l0.867,0.867l0.017-0.017c-0.364-0.589-0.277-1.699,0.321-2.297
		c0.235-0.233,0.294-0.26,0.399-0.347l0.953,0.953c-0.164,0.113-0.33,0.243-0.469,0.381c-0.667,0.667-0.675,1.752,0.322,2.749
		l2.131,2.131l-0.988,0.989L334.05,90.841z"/>
	<path d="M344.315,87.546c0.241,0.242,0.388,0.286,0.57,0.104l0.104-0.104c0.043-0.043,0.078-0.096,0.122-0.156l0.685,0.684
		c-0.095,0.2-0.345,0.573-0.51,0.738c-0.407,0.407-0.825,0.545-1.308,0.216c-0.01,0.771-0.479,1.57-1.006,2.097
		c-0.807,0.807-1.967,1.1-2.843,0.226c-1.119-1.119-0.407-2.193,0.33-3.121c0.581-0.857,1.301-1.387,0.71-1.977
		c-0.521-0.52-1.145-0.069-1.534,0.322c-0.555,0.554-0.721,1.17-0.278,1.699l-0.989,0.988c-1.084-1.221-0.451-2.53,0.545-3.527
		c0.876-0.876,2.151-1.439,3.094-0.495L344.315,87.546z M342.076,87.285c-0.104,0.503-0.58,0.962-0.944,1.482
		c-0.355,0.494-0.583,1.032-0.062,1.551c0.452,0.452,1.136,0.009,1.482-0.337c0.435-0.435,0.884-1.334,0.26-1.96L342.076,87.285z"/>
	<path d="M341.395,83.494l0.737-0.737l-0.373-0.373c-1.144-1.145-0.736-1.934-0.095-2.575c0.32-0.321,0.564-0.529,0.752-0.632
		l0.772,0.77c-0.166,0.096-0.312,0.208-0.51,0.407c-0.268,0.269-0.39,0.582-0.018,0.953l0.459,0.46l0.842-0.841l0.737,0.737
		l-0.842,0.841l3.745,3.745l-0.988,0.989l-3.745-3.745l-0.737,0.737L341.395,83.494z"/>
	<path d="M344.439,80.451l0.737-0.737l-0.373-0.373c-1.145-1.144-0.738-1.933-0.096-2.575c0.321-0.32,0.564-0.529,0.755-0.632
		l0.771,0.771c-0.166,0.096-0.312,0.208-0.51,0.407c-0.271,0.269-0.39,0.582-0.02,0.953l0.459,0.46l0.842-0.841l0.739,0.736
		l-0.842,0.842l3.746,3.745l-0.99,0.989l-3.745-3.745l-0.738,0.737L344.439,80.451z M345.929,75.545l0.99-0.989l0.937,0.936
		l-0.99,0.989L345.929,75.545z M347.637,77.253l0.99-0.989l4.48,4.48l-0.991,0.989L347.637,77.253z"/>
	<path d="M354.087,73.8c-0.635-0.478-1.307-0.373-1.864,0.182c-0.513,0.512-0.95,1.507,0.398,2.86
		c0.742,0.746,1.866,1.206,2.721,0.347c0.584-0.581,0.6-1.342,0.043-2.088l0.992-0.989c0.987,1.353,0.897,2.706-0.251,3.859
		c-1.407,1.404-3.172,1.178-4.492-0.139c-1.353-1.353-1.671-3.146-0.198-4.62c1.041-1.041,2.445-1.405,3.643-0.4L354.087,73.8z"/>
</g>
<g>
	<path d="M313.177,144.275l1.526-1.525l6.551,3.138l0.02-0.018l-3.18-6.511l1.507-1.508l6.19,6.188l-1.032,1.034l-4.777-4.778
		l-0.018,0.019l3.06,6.492l-0.893,0.895l-6.494-3.06l-0.017,0.019l4.777,4.779l-1.031,1.03L313.177,144.275z"/>
	<path d="M325.551,140.311c0.702,0.703,1.709,0.946,2.531,0.121c0.58-0.58,0.667-1.167,0.346-1.839l0.936-0.937
		c0.772,1.188,0.47,2.585-0.501,3.556c-1.411,1.413-3.164,1.221-4.55-0.165c-1.274-1.275-1.535-3.198-0.2-4.533
		c1.413-1.413,3.553-1.006,4.732,0.504L325.551,140.311z M327.207,137.354c-0.667-0.582-1.638-0.737-2.315-0.061
		c-0.686,0.684-0.633,1.672,0.01,2.367L327.207,137.354z"/>
	<path d="M335.895,133.937l-0.938,0.937l-0.604-0.607l-0.019,0.018c0.251,0.792-0.095,1.556-0.659,2.119
		c-1.412,1.41-3.146,1.048-4.491-0.294c-1.629-1.631-1.368-3.298-0.389-4.271c0.555-0.556,1.396-0.983,2.194-0.793l0.018-0.021
		l-2.289-2.284l0.99-0.991L335.895,133.937z M333.026,135.488c0.876-0.876,0.451-2.064-0.329-2.844
		c-0.998-0.996-2.056-1.098-2.818-0.337c-0.927,0.93-0.424,2.089,0.373,2.888C331.024,135.964,332.167,136.347,333.026,135.488z"/>
	<path d="M330.583,126.87l0.99-0.99l0.937,0.937l-0.989,0.99L330.583,126.87z M332.292,128.577l0.99-0.989l4.479,4.479l-0.988,0.991
		L332.292,128.577z"/>
	<path d="M342.574,127.258l-0.971,0.972l-0.624-0.625l-0.018,0.017c0.209,0.695-0.034,1.526-0.529,2.021
		c-1.179,1.178-2.255,1.092-3.433-0.087l-2.843-2.843l0.989-0.988l2.747,2.748c0.789,0.788,1.387,0.762,1.933,0.216
		c0.824-0.824,0.572-1.629-0.123-2.323l-2.599-2.6l0.987-0.99L342.574,127.258z"/>
	<path d="M338.96,121.907l0.938-0.936l0.622,0.622l0.025-0.025c-0.137-0.742-0.085-1.404,0.635-2.121
		c0.544-0.543,1.292-0.822,2-0.511c-0.12-0.795,0-1.492,0.659-2.15c0.947-0.945,1.924-1.074,3.009,0.01l3.093,3.093l-0.991,0.99
		l-2.618-2.618c-0.719-0.721-1.25-1.161-2.019-0.39c-0.668,0.668-0.521,1.39,0.243,2.152l2.627,2.625l-0.99,0.991l-2.877-2.878
		c-0.625-0.626-1.136-0.755-1.735-0.159c-0.51,0.513-0.553,1.406,0.183,2.142l2.66,2.661l-0.988,0.991L338.96,121.907z"/>
	<path d="M352.168,114.786c0.642,0.52,1.265,0.294,1.794-0.235c0.382-0.38,0.946-1.1,0.407-1.585
		c-0.546-0.494-1.326,0.164-2.21,0.719c-0.885,0.572-1.855,1.021-2.766,0.112c-0.979-0.979-0.225-2.336,0.589-3.151
		c0.919-0.918,2.129-1.387,3.248-0.495l-1.034,1.033c-0.572-0.383-1.064-0.13-1.506,0.313c-0.286,0.282-0.745,0.884-0.357,1.274
		c0.486,0.485,1.295-0.168,2.177-0.74c0.885-0.555,1.868-1.023,2.753-0.14c1.065,1.066,0.382,2.53-0.543,3.459
		c-1.136,1.137-2.462,1.457-3.547,0.425L352.168,114.786z"/>
	<path d="M351.068,106.384l0.993-0.989l0.936,0.936l-0.988,0.989L351.068,106.384z M352.776,108.093l0.989-0.989l4.479,4.482
		l-0.986,0.986L352.776,108.093z"/>
	<path d="M354.218,106.651l0.743-0.745l-1.344-1.343l0.989-0.99l1.345,1.345l0.893-0.894l0.739,0.737l-0.895,0.893l2.391,2.392
		c0.41,0.409,0.651,0.581,1.093,0.138c0.139-0.138,0.281-0.277,0.385-0.45l0.764,0.763c-0.188,0.243-0.374,0.476-0.588,0.692
		c-1.044,1.04-1.611,0.816-2.383,0.096l-2.644-2.643l-0.745,0.745L354.218,106.651z"/>
	<path d="M360.571,105.289c0.702,0.701,1.712,0.945,2.532,0.122c0.58-0.581,0.666-1.169,0.345-1.838l0.938-0.936
		c0.771,1.188,0.468,2.583-0.501,3.553c-1.414,1.414-3.165,1.223-4.552-0.164c-1.274-1.274-1.535-3.198-0.198-4.534
		c1.412-1.412,3.552-1.006,4.731,0.503L360.571,105.289z M362.229,102.334c-0.669-0.581-1.64-0.737-2.315-0.062
		c-0.689,0.685-0.637,1.673,0.01,2.367L362.229,102.334z"/>
</g>
<g>
	<path fill="#FFFFFF" d="M-66.727,122.109h1.823l1.927,5.841h0.029l1.853-5.841h1.737l-2.723,7.605h-1.883L-66.727,122.109z"/>
	<path fill="#FFFFFF" d="M-58.691,121.124c1.397,0,2.765-0.457,3-1.708h1.368v10.299h-1.838v-7.269h-2.529V121.124z"/>
	<path fill="#FFFFFF" d="M-52.642,126.682c0-1.293,0.721-2.224,1.883-2.515v-0.029c-0.942-0.352-1.457-1.116-1.457-2.117
		c0-1.766,1.148-2.811,3.206-2.811c2.061,0,3.208,1.045,3.208,2.811c0,0.996-0.515,1.763-1.458,2.117v0.029
		c1.162,0.291,1.883,1.222,1.883,2.515c0,2.018-1.545,3.239-3.634,3.239S-52.642,128.699-52.642,126.682z M-47.051,126.682
		c0-1.13-0.839-1.812-1.958-1.812c-1.117,0-1.956,0.682-1.956,1.812c0,1.223,0.839,1.915,1.956,1.915
		C-47.891,128.597-47.051,127.904-47.051,126.682z M-50.627,122.109c0,0.984,0.677,1.515,1.618,1.515s1.618-0.53,1.618-1.515
		c0-1.016-0.721-1.574-1.618-1.574C-49.907,120.535-50.627,121.094-50.627,122.109z"/>
	<path fill="#FFFFFF" d="M-34.321,128.022c0,0.411,0.088,0.574,0.398,0.574h0.176c0.074,0,0.147-0.014,0.235-0.029v1.162
		c-0.249,0.088-0.779,0.191-1.059,0.191c-0.69,0-1.161-0.236-1.295-0.928c-0.661,0.648-1.735,0.928-2.632,0.928
		c-1.368,0-2.604-0.737-2.604-2.223c0-1.896,1.515-2.206,2.927-2.371c1.222-0.233,2.28-0.078,2.28-1.075
		c0-0.882-0.912-1.029-1.573-1.029c-0.942,0-1.605,0.384-1.677,1.203h-1.676c0.118-1.958,1.764-2.53,3.457-2.53
		c1.485,0,3.044,0.603,3.044,2.207V128.022z M-36,125.903c-0.515,0.338-1.308,0.324-2.059,0.459
		c-0.721,0.116-1.369,0.384-1.369,1.263c0,0.766,0.958,0.972,1.546,0.972c0.736,0,1.882-0.384,1.882-1.442V125.903z"/>
	<path fill="#FFFFFF" d="M-32.464,119.21h1.676v10.505h-1.676V119.21z"/>
	<path fill="#FFFFFF" d="M-29.3,122.109h1.588v1.03h0.03c0.471-0.884,1.367-1.236,2.354-1.236c2.398,0,3.559,1.809,3.559,4.045
		c0,2.059-1.045,3.973-3.281,3.973c-0.97,0-2.029-0.354-2.544-1.192h-0.03v3.794H-29.3V122.109z M-25.548,123.228
		c-1.411,0-2.132,1.057-2.132,2.69c0,1.53,0.779,2.679,2.132,2.679c1.53,0,2.104-1.354,2.104-2.679
		C-23.444,124.551-24.166,123.228-25.548,123.228z"/>
	<path fill="#FFFFFF" d="M-20.66,119.21h1.677v3.898h0.028c0.412-0.689,1.281-1.202,2.281-1.202c1.662,0,2.69,0.868,2.69,2.589
		v5.223h-1.677v-4.784c-0.043-1.191-0.486-1.706-1.485-1.706c-1.119,0-1.839,0.883-1.839,1.999v4.488h-1.676L-20.66,119.21
		L-20.66,119.21z"/>
	<path fill="#FFFFFF" d="M-6.122,128.022c0,0.411,0.088,0.574,0.397,0.574h0.177c0.075,0,0.147-0.014,0.235-0.029v1.162
		c-0.25,0.088-0.78,0.191-1.058,0.191c-0.692,0-1.164-0.236-1.295-0.928c-0.663,0.648-1.736,0.928-2.632,0.928
		c-1.368,0-2.604-0.737-2.604-2.223c0-1.896,1.515-2.206,2.928-2.371c1.22-0.233,2.278-0.078,2.278-1.075
		c0-0.882-0.911-1.029-1.574-1.029c-0.941,0-1.603,0.384-1.676,1.203h-1.677c0.118-1.958,1.765-2.53,3.456-2.53
		c1.487,0,3.045,0.603,3.045,2.207V128.022z M-7.799,125.903c-0.514,0.338-1.309,0.324-2.06,0.459
		c-0.721,0.116-1.367,0.384-1.367,1.263c0,0.766,0.956,0.972,1.544,0.972c0.735,0,1.882-0.384,1.882-1.442V125.903z"/>
</g>
<g>
	<path fill="#FFFFFF" d="M100.525,94.977h1.823l1.927,5.84h0.029l1.854-5.84h1.737l-2.724,7.606h-1.883L100.525,94.977z"/>
	<path fill="#FFFFFF" d="M108.563,93.992c1.396,0,2.764-0.457,3-1.708h1.368v10.298h-1.839v-7.267h-2.53L108.563,93.992
		L108.563,93.992z"/>
	<path fill="#FFFFFF" d="M114.36,92.285h7.046v1.399c-2.147,2.427-3.559,5.178-3.839,8.899h-1.839
		c0.235-3.267,1.839-6.385,3.971-8.797h-5.339L114.36,92.285L114.36,92.285z"/>
	<path fill="#FFFFFF" d="M123.455,99.213c0,1.192,0.648,2.251,2.045,2.251c0.986,0,1.559-0.426,1.854-1.264h1.589
		c-0.353,1.662-1.794,2.589-3.443,2.589c-2.397,0-3.721-1.647-3.721-4c0-2.163,1.412-4.017,3.677-4.017
		c2.398,0,3.868,2.163,3.589,4.442L123.455,99.213L123.455,99.213z M127.369,98.111c-0.073-1.06-0.765-2.016-1.913-2.016
		c-1.162,0-1.957,0.883-2.001,2.016H127.369z"/>
</g>
<g>
	<path d="M556.79,113.606c0.944,0.944,2.028,0.625,2.895-0.241c0.951-0.953,0.834-1.787,0.373-2.245
		c-0.477-0.477-0.927-0.409-1.274-0.253c-0.605,0.277-1.264,0.711-2.356,1.336c-1.345,0.788-2.298,0.441-2.939-0.198
		c-1.249-1.251-0.677-2.964,0.442-4.083c1.281-1.283,3.059-1.69,4.35-0.399l-1.082,1.083c-0.859-0.737-1.675-0.512-2.428,0.243
		c-0.501,0.502-0.951,1.318-0.331,1.941c0.442,0.443,0.962,0.373,1.536,0.061c0.119-0.07,1.844-1.083,2.261-1.31
		c1.056-0.554,2.123-0.286,2.786,0.373c1.387,1.387,0.7,3.181-0.523,4.403c-1.41,1.413-3.233,1.883-4.79,0.374L556.79,113.606z"/>
	<path d="M557.261,104.883l0.99-0.988l0.938,0.936l-0.992,0.99L557.261,104.883z M558.967,106.592l0.993-0.989l4.478,4.481
		l-0.988,0.986L558.967,106.592z"/>
	<path d="M560.409,105.153l0.742-0.745l-1.345-1.344l0.988-0.989l1.348,1.344l0.894-0.893l0.738,0.737l-0.895,0.893l2.392,2.391
		c0.408,0.409,0.65,0.582,1.092,0.139c0.139-0.139,0.281-0.277,0.385-0.451l0.765,0.763c-0.192,0.243-0.378,0.477-0.591,0.693
		c-1.041,1.04-1.609,0.816-2.384,0.096l-2.64-2.643l-0.745,0.745L560.409,105.153z"/>
	<path d="M566.763,103.789c0.703,0.702,1.71,0.947,2.532,0.122c0.58-0.58,0.667-1.168,0.342-1.837l0.94-0.936
		c0.771,1.187,0.469,2.583-0.501,3.553c-1.414,1.414-3.164,1.223-4.551-0.165c-1.275-1.274-1.536-3.198-0.2-4.533
		c1.411-1.412,3.551-1.006,4.73,0.502L566.763,103.789z M568.419,100.835c-0.667-0.582-1.639-0.738-2.314-0.062
		c-0.685,0.686-0.632,1.673,0.01,2.368L568.419,100.835z"/>
	<path d="M569.838,95.726l1.048-1.049l4.217,2.47l0.021-0.017l-2.505-4.187l0.996-0.997l4.15,2.54l0.021-0.017l-2.436-4.256
		l1.006-1.004l3.077,5.884l-1.014,1.015l-4.161-2.497l-0.021,0.018l2.505,4.151l-1.04,1.041L569.838,95.726z"/>
	<path d="M575.126,87.018l0.99-0.989l0.936,0.936l-0.988,0.989L575.126,87.018z M576.835,88.727l0.991-0.988l4.478,4.48
		l-0.987,0.989L576.835,88.727z"/>
	<path d="M578.274,87.287l0.746-0.746l-1.344-1.344l0.987-0.989l1.345,1.344l0.895-0.893l0.735,0.737l-0.892,0.893l2.388,2.393
		c0.408,0.408,0.65,0.582,1.097,0.138c0.139-0.138,0.277-0.278,0.381-0.451l0.764,0.763c-0.191,0.243-0.374,0.476-0.589,0.693
		c-1.042,1.04-1.61,0.814-2.382,0.096l-2.644-2.644l-0.741,0.746L578.274,87.287z"/>
	<path d="M579.854,82.291l0.993-0.989l2.296,2.297l0.018-0.017c-0.165-0.65,0.043-1.465,0.633-2.054
		c0.979-0.98,2.099-1.075,3.112-0.062l3.076,3.077l-0.988,0.989l-2.817-2.817c-0.729-0.676-1.292-0.721-1.88-0.13
		c-0.658,0.658-0.564,1.602,0.096,2.263l2.642,2.643l-0.989,0.988L579.854,82.291z"/>
	<path d="M586.609,75.536l0.992-0.989l2.297,2.297l0.018-0.017c-0.164-0.65,0.043-1.465,0.634-2.055
		c0.981-0.979,2.1-1.074,3.11-0.061l3.082,3.078l-0.993,0.989l-2.817-2.817c-0.728-0.676-1.291-0.72-1.881-0.13
		c-0.658,0.659-0.563,1.603,0.096,2.263l2.644,2.643l-0.989,0.989L586.609,75.536z"/>
	<path d="M591.414,70.731l0.993-0.989l0.936,0.937l-0.988,0.988L591.414,70.731z M593.122,72.439l0.989-0.989l4.48,4.48L597.6,76.92
		L593.122,72.439z"/>
	<path d="M603.456,70.599c1.353,1.353,1.229,2.792-0.191,4.213c-0.897,0.902-2.254,1.56-3.396,0.607l0.987-0.988
		c0.686,0.442,1.231,0.088,1.734-0.416c0.798-0.797,0.745-1.56,0.007-2.297l-0.684-0.684l-0.021,0.017
		c0.221,0.771,0,1.578-0.55,2.133c-1.423,1.42-3.091,0.935-4.371-0.348c-1.204-1.205-1.49-2.999-0.216-4.273
		c0.563-0.563,1.299-0.849,2.063-0.589l0.016-0.017l-0.615-0.614l0.993-0.989L603.456,70.599z M600.363,69.481
		c-0.773-0.772-1.829-1.136-2.686-0.279c-0.876,0.876-0.364,1.994,0.381,2.74c0.731,0.728,1.839,1.127,2.666,0.304
		C601.593,71.371,601.133,70.252,600.363,69.481z"/>
	<path d="M598.354,63.792l0.992-0.987l2.294,2.297l0.019-0.017c-0.163-0.65,0.044-1.466,0.633-2.055
		c0.98-0.979,2.1-1.074,3.112-0.061l3.078,3.077l-0.989,0.988l-2.817-2.817c-0.729-0.676-1.291-0.72-1.88-0.13
		c-0.66,0.658-0.564,1.604,0.095,2.263l2.644,2.644l-0.991,0.987L598.354,63.792z"/>
	<path d="M606.393,59.168l0.744-0.745l-1.343-1.344l0.987-0.988l1.345,1.344l0.895-0.893l0.735,0.737l-0.891,0.893l2.39,2.392
		c0.409,0.408,0.647,0.581,1.094,0.138c0.139-0.138,0.277-0.277,0.38-0.45l0.765,0.762c-0.188,0.243-0.374,0.477-0.587,0.693
		c-1.044,1.04-1.611,0.815-2.384,0.095l-2.643-2.643l-0.743,0.744L606.393,59.168z"/>
	<path d="M609.678,55.882l0.929-0.927l0.866,0.867l0.018-0.017c-0.364-0.59-0.276-1.7,0.324-2.298
		c0.23-0.234,0.291-0.26,0.396-0.347l0.953,0.953c-0.165,0.113-0.329,0.243-0.468,0.381c-0.667,0.667-0.678,1.752,0.32,2.749
		l2.131,2.131l-0.989,0.988L609.678,55.882z"/>
	<path d="M619.943,52.587c0.238,0.243,0.387,0.286,0.572,0.103l0.104-0.104c0.043-0.043,0.076-0.094,0.121-0.156l0.688,0.685
		c-0.095,0.2-0.347,0.574-0.512,0.737c-0.407,0.408-0.826,0.545-1.309,0.216c-0.01,0.771-0.477,1.569-1.006,2.097
		c-0.801,0.806-1.966,1.1-2.839,0.225c-1.118-1.118-0.408-2.192,0.33-3.12c0.583-0.857,1.304-1.387,0.71-1.977
		c-0.52-0.52-1.144-0.069-1.534,0.321c-0.556,0.554-0.72,1.169-0.278,1.698l-0.99,0.989c-1.086-1.222-0.447-2.531,0.547-3.528
		c0.874-0.876,2.148-1.439,3.093-0.494L619.943,52.587z M617.707,52.326c-0.104,0.502-0.582,0.962-0.946,1.482
		c-0.354,0.495-0.581,1.032-0.06,1.552c0.449,0.452,1.136,0.009,1.48-0.337c0.435-0.434,0.885-1.334,0.261-1.96L617.707,52.326z"/>
	<path d="M617.024,48.537l0.736-0.737l-0.373-0.373c-1.146-1.145-0.739-1.933-0.094-2.574c0.319-0.321,0.563-0.529,0.753-0.633
		l0.771,0.77c-0.169,0.096-0.313,0.208-0.513,0.409c-0.271,0.269-0.39,0.582-0.019,0.954l0.459,0.459l0.846-0.841l0.734,0.737
		l-0.84,0.841l3.743,3.745l-0.987,0.989l-3.747-3.745l-0.737,0.737L617.024,48.537z"/>
	<path d="M620.069,45.492l0.74-0.737l-0.377-0.374c-1.143-1.144-0.737-1.933-0.095-2.574c0.323-0.321,0.563-0.529,0.754-0.633
		l0.77,0.77c-0.164,0.096-0.312,0.208-0.51,0.409c-0.269,0.269-0.388,0.582-0.018,0.953l0.46,0.459l0.841-0.841l0.74,0.737
		l-0.845,0.841l3.747,3.745l-0.99,0.988l-3.744-3.745l-0.741,0.737L620.069,45.492z M621.559,40.586l0.992-0.988l0.937,0.936
		l-0.989,0.989L621.559,40.586z M623.268,42.295l0.987-0.989l4.482,4.48l-0.993,0.988L623.268,42.295z"/>
	<path d="M629.719,38.841c-0.633-0.477-1.309-0.373-1.866,0.182c-0.514,0.512-0.951,1.509,0.397,2.861
		c0.745,0.746,1.866,1.205,2.722,0.346c0.586-0.58,0.599-1.343,0.042-2.089l0.993-0.988c0.988,1.353,0.898,2.706-0.251,3.858
		c-1.406,1.404-3.172,1.18-4.49-0.139c-1.354-1.353-1.673-3.146-0.198-4.621c1.04-1.04,2.444-1.404,3.64-0.398L629.719,38.841z"/>
</g>
<g>
	<path d="M590.793,110.193l1.084-1.083l5.253,5.252l3.146-3.146l0.937,0.938l-4.23,4.229L590.793,110.193z"/>
	<path d="M604.891,106.48c0.243,0.243,0.389,0.286,0.571,0.104l0.104-0.104c0.043-0.043,0.078-0.096,0.124-0.156l0.686,0.685
		c-0.096,0.199-0.345,0.573-0.511,0.737c-0.406,0.408-0.824,0.545-1.307,0.217c-0.011,0.772-0.479,1.568-1.005,2.098
		c-0.807,0.805-1.966,1.098-2.843,0.224c-1.117-1.118-0.408-2.192,0.332-3.121c0.582-0.857,1.301-1.385,0.712-1.975
		c-0.521-0.521-1.148-0.07-1.535,0.321c-0.555,0.554-0.72,1.17-0.28,1.698l-0.989,0.989c-1.082-1.223-0.45-2.531,0.544-3.528
		c0.879-0.875,2.152-1.439,3.094-0.495L604.891,106.48z M602.654,106.219c-0.105,0.502-0.581,0.961-0.945,1.482
		c-0.355,0.495-0.582,1.031-0.062,1.552c0.45,0.452,1.137,0.01,1.483-0.339c0.434-0.433,0.885-1.333,0.259-1.958L602.654,106.219z"
		/>
	<path d="M602.493,101.908l0.927-0.927l0.866,0.867l0.021-0.016c-0.368-0.588-0.28-1.699,0.321-2.297
		c0.231-0.234,0.294-0.261,0.398-0.348l0.95,0.953c-0.166,0.113-0.33,0.244-0.47,0.381c-0.667,0.668-0.676,1.752,0.321,2.749
		l2.132,2.131l-0.987,0.987L602.493,101.908z"/>
	<path d="M613.866,99.029c1.352,1.353,1.231,2.791-0.19,4.213c-0.902,0.901-2.255,1.56-3.399,0.607l0.991-0.989
		c0.686,0.442,1.23,0.087,1.732-0.415c0.795-0.797,0.743-1.561,0.01-2.298l-0.688-0.685l-0.017,0.019
		c0.216,0.771,0,1.576-0.556,2.132c-1.421,1.422-3.085,0.936-4.369-0.347c-1.205-1.205-1.49-2.999-0.216-4.273
		c0.563-0.564,1.301-0.85,2.063-0.59l0.018-0.017l-0.614-0.614l0.991-0.989L613.866,99.029z M610.77,97.911
		c-0.771-0.771-1.827-1.135-2.682-0.277c-0.88,0.876-0.365,1.993,0.382,2.739c0.729,0.727,1.837,1.126,2.661,0.304
		C612.002,99.801,611.542,98.683,610.77,97.911z"/>
	<path d="M613.756,95.637c0.699,0.702,1.708,0.946,2.53,0.122c0.58-0.582,0.667-1.17,0.347-1.839l0.936-0.936
		c0.771,1.188,0.47,2.583-0.503,3.555c-1.407,1.413-3.163,1.223-4.55-0.165c-1.274-1.274-1.534-3.199-0.199-4.533
		c1.413-1.414,3.553-1.006,4.732,0.502L613.756,95.637z M615.412,92.683c-0.667-0.582-1.639-0.739-2.315-0.062
		c-0.689,0.685-0.637,1.672,0.01,2.366L615.412,92.683z"/>
	<path d="M621.083,89.4c0.639,0.522,1.267,0.296,1.795-0.233c0.384-0.381,0.946-1.1,0.408-1.586
		c-0.547-0.494-1.326,0.164-2.21,0.719c-0.886,0.573-1.855,1.023-2.767,0.113c-0.978-0.979-0.228-2.34,0.587-3.155
		c0.918-0.92,2.132-1.388,3.25-0.495l-1.03,1.031c-0.576-0.381-1.066-0.13-1.51,0.312c-0.282,0.286-0.742,0.885-0.354,1.275
		c0.486,0.486,1.291-0.165,2.176-0.737c0.884-0.554,1.869-1.023,2.757-0.139c1.063,1.066,0.381,2.532-0.546,3.459
		c-1.136,1.134-2.463,1.456-3.546,0.424L621.083,89.4z"/>
	<path d="M619.985,81l0.991-0.989l0.937,0.936l-0.989,0.988L619.985,81z M621.693,82.708l0.987-0.988l4.482,4.48l-0.989,0.989
		L621.693,82.708z"/>
	<path d="M623.134,81.268l0.745-0.746l-1.348-1.344l0.992-0.989l1.344,1.344l0.894-0.893l0.741,0.737l-0.896,0.893l2.393,2.392
		c0.407,0.409,0.65,0.582,1.095,0.139c0.137-0.139,0.278-0.279,0.383-0.452l0.762,0.763c-0.19,0.243-0.372,0.476-0.587,0.693
		c-1.042,1.04-1.611,0.816-2.382,0.096l-2.644-2.643l-0.743,0.745L623.134,81.268z"/>
	<path d="M629.49,79.904c0.701,0.702,1.708,0.946,2.531,0.121c0.581-0.581,0.668-1.169,0.347-1.838l0.936-0.936
		c0.771,1.188,0.468,2.583-0.502,3.555c-1.41,1.413-3.164,1.223-4.552-0.165c-1.274-1.274-1.533-3.199-0.199-4.533
		c1.414-1.413,3.553-1.005,4.732,0.503L629.49,79.904z M631.145,76.949c-0.668-0.582-1.639-0.738-2.32-0.062
		c-0.683,0.685-0.631,1.672,0.016,2.366L631.145,76.949z"/>
</g>
<g>
	<path d="M517.132,113.606c0.943,0.944,2.028,0.625,2.894-0.241c0.951-0.953,0.834-1.787,0.374-2.245
		c-0.48-0.477-0.927-0.409-1.274-0.253c-0.606,0.277-1.266,0.711-2.357,1.336c-1.348,0.788-2.297,0.441-2.939-0.198
		c-1.25-1.251-0.677-2.964,0.441-4.083c1.282-1.283,3.06-1.69,4.352-0.399l-1.084,1.083c-0.857-0.737-1.674-0.512-2.428,0.243
		c-0.499,0.502-0.95,1.318-0.33,1.941c0.443,0.443,0.963,0.373,1.536,0.061c0.119-0.07,1.844-1.083,2.262-1.31
		c1.056-0.554,2.123-0.286,2.785,0.373c1.388,1.387,0.699,3.181-0.522,4.403c-1.41,1.413-3.233,1.883-4.791,0.374L517.132,113.606z"
		/>
	<path d="M517.602,104.883l0.989-0.988l0.938,0.936l-0.991,0.99L517.602,104.883z M519.309,106.592l0.993-0.989l4.479,4.481
		l-0.991,0.986L519.309,106.592z"/>
	<path d="M520.75,105.153l0.742-0.745l-1.345-1.344l0.988-0.989l1.348,1.344l0.894-0.893l0.737,0.737l-0.893,0.893l2.391,2.391
		c0.408,0.409,0.651,0.582,1.093,0.139c0.139-0.139,0.281-0.277,0.384-0.451l0.765,0.763c-0.192,0.243-0.378,0.477-0.591,0.693
		c-1.041,1.04-1.61,0.816-2.383,0.096l-2.642-2.643l-0.744,0.745L520.75,105.153z"/>
	<path d="M527.104,103.789c0.702,0.702,1.708,0.947,2.532,0.122c0.579-0.58,0.666-1.168,0.341-1.837l0.94-0.936
		c0.771,1.187,0.469,2.583-0.501,3.553c-1.414,1.414-3.163,1.223-4.551-0.165c-1.274-1.274-1.536-3.198-0.2-4.533
		c1.411-1.412,3.552-1.006,4.729,0.502L527.104,103.789z M528.76,100.835c-0.667-0.582-1.639-0.738-2.313-0.062
		c-0.686,0.686-0.633,1.673,0.01,2.368L528.76,100.835z"/>
	<path d="M530.576,95.325l0.937-0.936l0.606,0.605l0.021-0.017c-0.243-0.797,0.076-1.533,0.656-2.114
		c1.412-1.414,3.163-1.032,4.48,0.286c1.214,1.213,1.725,2.956,0.407,4.272c-0.572,0.573-1.403,0.988-2.201,0.798l-0.018,0.017
		l2.232,2.236l-0.987,0.989L530.576,95.325z M533.446,93.773c-0.834,0.833-0.634,1.882,0.332,2.844
		c0.897,0.901,2.032,1.118,2.835,0.32c0.901-0.901,0.441-2.038-0.338-2.817C535.465,93.313,534.26,92.959,533.446,93.773z"/>
	<path d="M539.021,91.874c0.701,0.701,1.711,0.944,2.531,0.122c0.58-0.581,0.668-1.17,0.346-1.839l0.936-0.936
		c0.772,1.188,0.47,2.583-0.501,3.553c-1.413,1.414-3.164,1.223-4.552-0.164c-1.273-1.275-1.533-3.198-0.198-4.534
		c1.413-1.413,3.553-1.006,4.732,0.503L539.021,91.874z M540.679,88.918c-0.669-0.581-1.64-0.737-2.32-0.062
		c-0.685,0.685-0.633,1.673,0.009,2.368L540.679,88.918z"/>
	<path d="M540.516,85.387l0.931-0.927l0.866,0.867l0.018-0.017c-0.364-0.59-0.28-1.699,0.321-2.297
		c0.233-0.234,0.294-0.26,0.397-0.347l0.953,0.953c-0.166,0.112-0.332,0.242-0.468,0.381c-0.671,0.667-0.679,1.75,0.321,2.748
		l2.131,2.132l-0.99,0.988L540.516,85.387z"/>
	<path d="M543.56,82.343l0.736-0.737l-0.372-0.373c-1.145-1.145-0.738-1.934-0.096-2.575c0.324-0.321,0.563-0.53,0.755-0.633
		l0.77,0.77c-0.164,0.096-0.312,0.208-0.511,0.408c-0.269,0.269-0.387,0.582-0.018,0.953l0.461,0.46l0.841-0.841l0.74,0.736
		l-0.846,0.841l3.745,3.745l-0.987,0.987l-3.744-3.744l-0.741,0.737L543.56,82.343z"/>
	<path d="M548.423,81.951c-1.357-1.361-1.525-3.19-0.096-4.62c1.432-1.431,3.261-1.266,4.624,0.096
		c1.378,1.379,1.535,3.198,0.104,4.629C551.621,83.486,549.802,83.33,548.423,81.951z M551.96,78.415
		c-0.772-0.771-1.967-1.188-2.849-0.304c-0.887,0.883-0.472,2.081,0.305,2.852c0.778,0.779,1.973,1.196,2.855,0.312
		C553.156,80.392,552.74,79.195,551.96,78.415z"/>
	<path d="M551.382,74.521l0.929-0.927l0.865,0.868l0.021-0.018c-0.367-0.588-0.28-1.699,0.32-2.297
		c0.23-0.234,0.294-0.26,0.398-0.347l0.95,0.954c-0.164,0.113-0.33,0.243-0.469,0.381c-0.665,0.667-0.675,1.75,0.321,2.747
		l2.132,2.132l-0.987,0.988L551.382,74.521z"/>
	<path d="M554.617,71.285l0.938-0.935l0.625,0.623l0.024-0.025c-0.133-0.744-0.082-1.405,0.638-2.123
		c0.545-0.545,1.292-0.823,2.002-0.512c-0.12-0.796,0-1.49,0.66-2.149c0.945-0.944,1.924-1.074,3.007,0.009l3.092,3.094l-0.99,0.989
		l-2.617-2.618c-0.72-0.719-1.252-1.162-2.02-0.39c-0.667,0.667-0.52,1.388,0.243,2.15l2.626,2.626l-0.988,0.989l-2.879-2.877
		c-0.624-0.625-1.137-0.754-1.731-0.157c-0.513,0.512-0.556,1.404,0.179,2.142l2.66,2.661l-0.988,0.989L554.617,71.285z"/>
	<path d="M560.308,62.179l0.986-0.988l0.938,0.936l-0.989,0.989L560.308,62.179z M562.016,63.888l0.987-0.989l4.481,4.48
		l-0.988,0.988L562.016,63.888z"/>
	<path d="M563.88,62.023l0.937-0.937l0.658,0.659h0.03c-0.187-0.796,0.013-1.604,0.599-2.193c0.979-0.979,2.099-1.075,3.112-0.062
		l3.076,3.077l-0.987,0.989l-2.817-2.817c-0.732-0.676-1.295-0.721-1.881-0.13c-0.659,0.659-0.565,1.604,0.095,2.263l2.642,2.643
		l-0.989,0.988L563.88,62.023z"/>
	<path d="M577.109,57.286c1.354,1.353,1.233,2.792-0.188,4.213c-0.9,0.902-2.254,1.56-3.399,0.607l0.99-0.989
		c0.686,0.442,1.231,0.088,1.733-0.416c0.796-0.798,0.743-1.56,0.01-2.298l-0.688-0.685l-0.019,0.017
		c0.218,0.771,0,1.578-0.554,2.133c-1.423,1.421-3.087,0.936-4.369-0.348c-1.205-1.204-1.494-2.999-0.22-4.272
		c0.563-0.563,1.303-0.851,2.066-0.59l0.017-0.017l-0.614-0.615l0.988-0.989L577.109,57.286z M574.015,56.168
		c-0.771-0.771-1.829-1.136-2.688-0.277c-0.874,0.875-0.363,1.993,0.384,2.739c0.728,0.727,1.838,1.127,2.661,0.304
		C575.246,58.059,574.787,56.939,574.015,56.168z"/>
	<path d="M577.746,52.628c-1.361-1.361-1.524-3.19-0.095-4.62c1.431-1.43,3.259-1.266,4.62,0.096
		c1.38,1.379,1.538,3.199,0.107,4.629C580.949,54.163,579.125,54.007,577.746,52.628z M581.283,49.092
		c-0.772-0.771-1.967-1.188-2.853-0.304c-0.884,0.885-0.468,2.08,0.304,2.852c0.785,0.78,1.977,1.196,2.86,0.312
		C582.479,51.067,582.062,49.872,581.283,49.092z"/>
	<path d="M580.705,45.198l0.937-0.937l0.657,0.659h0.036c-0.191-0.797,0.009-1.603,0.594-2.193c0.981-0.979,2.097-1.074,3.112-0.062
		l3.077,3.078l-0.989,0.988l-2.817-2.817c-0.728-0.676-1.291-0.72-1.881-0.13c-0.659,0.66-0.563,1.604,0.096,2.263l2.645,2.643
		l-0.992,0.989L580.705,45.198z"/>
	<path d="M588.752,42.144c0.701,0.701,1.71,0.946,2.53,0.122c0.58-0.581,0.668-1.169,0.347-1.837l0.936-0.937
		c0.771,1.188,0.469,2.583-0.501,3.553c-1.413,1.414-3.164,1.223-4.552-0.164c-1.274-1.274-1.534-3.2-0.198-4.534
		c1.412-1.413,3.552-1.006,4.732,0.503L588.752,42.144z M590.407,39.188c-0.667-0.582-1.639-0.739-2.319-0.062
		c-0.685,0.686-0.632,1.673,0.014,2.367L590.407,39.188z"/>
	<path d="M591.891,37.321l2.522-2.523l0.937,0.936l-2.522,2.523L591.891,37.321z"/>
	<path d="M593.185,32.718l0.745-0.745l-1.348-1.344l0.992-0.988l1.345,1.344l0.893-0.893l0.739,0.737l-0.893,0.893l2.391,2.392
		c0.407,0.408,0.65,0.581,1.096,0.138c0.136-0.138,0.278-0.277,0.381-0.45l0.763,0.763c-0.19,0.243-0.371,0.476-0.587,0.693
		c-1.043,1.041-1.612,0.816-2.383,0.096l-2.644-2.643l-0.74,0.745L593.185,32.718z"/>
	<path d="M594.789,27.696l0.993-0.988l0.936,0.936l-0.988,0.989L594.789,27.696z M596.497,29.404l0.989-0.989l4.48,4.481
		l-0.987,0.989L596.497,29.404z"/>
	<path d="M598.388,27.514l0.937-0.937l0.625,0.623l0.025-0.026c-0.137-0.744-0.086-1.405,0.634-2.123
		c0.546-0.545,1.296-0.823,2.001-0.512c-0.119-0.795,0.006-1.49,0.661-2.148c0.945-0.945,1.924-1.075,3.008,0.008l3.095,3.094
		l-0.99,0.989l-2.62-2.618c-0.72-0.719-1.249-1.162-2.019-0.39c-0.667,0.667-0.521,1.387,0.243,2.15l2.627,2.626l-0.99,0.988
		l-2.88-2.877c-0.623-0.624-1.135-0.754-1.733-0.156c-0.511,0.511-0.554,1.404,0.184,2.142l2.66,2.66l-0.99,0.989L598.388,27.514z"
		/>
	<path d="M609.029,21.866c0.701,0.703,1.705,0.946,2.531,0.122c0.581-0.581,0.668-1.169,0.344-1.838l0.938-0.935
		c0.772,1.187,0.468,2.583-0.502,3.553c-1.413,1.413-3.164,1.223-4.552-0.165c-1.274-1.274-1.533-3.198-0.199-4.533
		c1.414-1.414,3.552-1.006,4.734,0.502L609.029,21.866z M610.686,18.912c-0.67-0.582-1.641-0.739-2.316-0.062
		c-0.686,0.686-0.634,1.673,0.01,2.367L610.686,18.912z"/>
	<path d="M620.916,13.948l-0.972,0.972l-0.628-0.624l-0.016,0.017c0.208,0.693-0.036,1.525-0.529,2.019
		c-1.18,1.178-2.254,1.091-3.436-0.088l-2.839-2.841l0.986-0.988l2.748,2.748c0.788,0.79,1.388,0.763,1.933,0.216
		c0.824-0.823,0.571-1.628-0.124-2.323l-2.597-2.6l0.988-0.989L620.916,13.948z"/>
	<path d="M617.278,8.624l0.939-0.938l0.607,0.606l0.017-0.017c-0.242-0.797,0.078-1.533,0.659-2.114
		c1.412-1.412,3.164-1.032,4.481,0.286c1.209,1.213,1.722,2.956,0.407,4.273c-0.575,0.571-1.407,0.988-2.206,0.797l-0.017,0.018
		l2.236,2.235l-0.99,0.989L617.278,8.624z M620.146,7.072c-0.834,0.832-0.636,1.88,0.331,2.843c0.9,0.901,2.036,1.118,2.837,0.321
		c0.897-0.901,0.438-2.038-0.337-2.817C622.167,6.612,620.962,6.256,620.146,7.072z"/>
	<path d="M630.906,3.489c1.355,1.353,1.23,2.792-0.189,4.213c-0.899,0.901-2.254,1.56-3.399,0.607l0.989-0.988
		c0.688,0.441,1.23,0.087,1.734-0.416c0.798-0.797,0.744-1.561,0.007-2.297l-0.685-0.685l-0.017,0.017
		c0.218,0.771,0,1.578-0.555,2.131c-1.423,1.422-3.089,0.936-4.37-0.347c-1.202-1.205-1.489-2.999-0.216-4.274
		c0.563-0.563,1.298-0.848,2.063-0.588l0.021-0.017l-0.615-0.615l0.989-0.989L630.906,3.489z M627.813,2.371
		c-0.771-0.772-1.829-1.136-2.688-0.277c-0.875,0.876-0.364,1.993,0.385,2.739c0.727,0.727,1.834,1.127,2.659,0.305
		C629.045,4.261,628.584,3.143,627.813,2.371z"/>
	<path d="M627.512-1.609l0.927-0.927l0.867,0.867l0.017-0.017c-0.363-0.589-0.275-1.699,0.321-2.297
		c0.234-0.233,0.296-0.26,0.399-0.348l0.954,0.953c-0.166,0.113-0.33,0.243-0.469,0.382c-0.668,0.667-0.679,1.752,0.319,2.749
		l2.133,2.131l-0.99,0.987L627.512-1.609z"/>
	<path d="M637.775-4.905c0.24,0.243,0.387,0.286,0.573,0.104l0.103-0.104c0.043-0.043,0.077-0.096,0.122-0.156l0.688,0.684
		c-0.096,0.2-0.347,0.573-0.511,0.737c-0.407,0.407-0.827,0.545-1.31,0.217c-0.008,0.771-0.477,1.568-1.005,2.097
		c-0.802,0.807-1.966,1.1-2.84,0.226c-1.117-1.119-0.408-2.193,0.329-3.121c0.582-0.857,1.305-1.387,0.712-1.977
		c-0.52-0.52-1.146-0.069-1.535,0.322c-0.555,0.554-0.72,1.17-0.277,1.698l-0.992,0.989c-1.083-1.221-0.449-2.53,0.547-3.527
		c0.876-0.876,2.148-1.439,3.092-0.495L637.775-4.905z M635.541-5.165c-0.105,0.503-0.586,0.961-0.946,1.481
		c-0.354,0.495-0.58,1.032-0.06,1.554c0.45,0.451,1.135,0.007,1.481-0.338c0.436-0.435,0.885-1.335,0.26-1.96L635.541-5.165z"/>
	<path d="M644.071-9.208l-0.94,0.936l-0.603-0.607l-0.021,0.017c0.251,0.789-0.095,1.552-0.658,2.116
		c-1.409,1.413-3.144,1.049-4.491-0.294c-1.626-1.631-1.365-3.295-0.386-4.273c0.554-0.556,1.395-0.98,2.192-0.79l0.018-0.018
		l-2.288-2.288l0.992-0.989L644.071-9.208z M641.201-7.655c0.878-0.876,0.449-2.063-0.332-2.843
		c-0.996-0.997-2.055-1.101-2.816-0.338c-0.928,0.927-0.424,2.088,0.373,2.886C639.2-7.179,640.345-6.797,641.201-7.655z"/>
	<path d="M643.729-12.833c0.701,0.702,1.707,0.944,2.53,0.121c0.581-0.581,0.668-1.17,0.344-1.838l0.938-0.935
		c0.773,1.187,0.47,2.583-0.5,3.553c-1.413,1.413-3.165,1.222-4.552-0.165c-1.275-1.274-1.533-3.199-0.199-4.533
		c1.412-1.413,3.552-1.006,4.73,0.503L643.729-12.833z M645.384-15.788c-0.668-0.582-1.638-0.738-2.316-0.062
		c-0.684,0.684-0.632,1.672,0.01,2.368L645.384-15.788z"/>
</g>
<g enable-background="new    ">
	<path fill="#FFFFFF" d="M714.504,121.843h1.822l1.926,5.841h0.029l1.854-5.841h1.737l-2.725,7.606h-1.88L714.504,121.843z"/>
	<path fill="#FFFFFF" d="M722.54,120.858c1.397,0,2.766-0.457,2.999-1.711h1.368v10.3h-1.837v-7.268h-2.531L722.54,120.858
		L722.54,120.858z"/>
	<path fill="#FFFFFF" d="M728.589,126.419c0-1.296,0.722-2.221,1.881-2.515v-0.031c-0.941-0.351-1.456-1.115-1.456-2.118
		c0-1.767,1.147-2.81,3.203-2.81c2.062,0,3.207,1.043,3.207,2.81c0,1.001-0.516,1.766-1.457,2.118v0.031
		c1.162,0.294,1.884,1.219,1.884,2.515c0,2.018-1.548,3.238-3.638,3.238C730.13,129.656,728.589,128.434,728.589,126.419z
		 M734.179,126.419c0-1.133-0.841-1.811-1.958-1.811c-1.115,0-1.957,0.678-1.957,1.811c0,1.22,0.842,1.914,1.957,1.914
		C733.34,128.33,734.179,127.639,734.179,126.419z M730.604,121.843c0,0.985,0.676,1.517,1.617,1.517
		c0.94,0,1.617-0.533,1.617-1.517c0-1.016-0.722-1.574-1.617-1.574S730.604,120.827,730.604,121.843z"/>
	<path fill="#FFFFFF" d="M749.836,129.449h-1.177l-0.28-1.236c-0.984,1.119-1.883,1.485-3.161,1.485c-3.134,0-5.033-2.486-5.033-5.5
		c0-2.987,1.899-5.503,5.033-5.503c2.279,0,4.218,1.223,4.5,3.589h-1.794c-0.191-1.365-1.367-2.089-2.706-2.089
		c-2.25,0-3.194,1.986-3.194,4.005c0,2.018,0.944,4.003,3.194,4.003c1.896,0.041,2.897-1.104,2.938-2.886h-2.793v-1.399h4.472
		L749.836,129.449L749.836,129.449z"/>
	<path fill="#FFFFFF" d="M754.859,118.945h1.954l4.047,10.504h-1.972l-0.985-2.781h-4.191l-0.987,2.781h-1.897L754.859,118.945z
		 M754.21,125.271h3.207l-1.573-4.516h-0.043L754.21,125.271z"/>
</g>
<g enable-background="new    ">
	<path fill="#FFFFFF" d="M210.587,107.078h1.824l1.927,5.839h0.029l1.854-5.839h1.737l-2.722,7.604h-1.882L210.587,107.078z"/>
	<path fill="#FFFFFF" d="M218.624,106.092c1.397,0,2.764-0.456,3-1.707h1.369v10.297h-1.839v-7.267h-2.531L218.624,106.092
		L218.624,106.092z"/>
	<path fill="#FFFFFF" d="M224.673,111.652c0-1.297,0.721-2.223,1.882-2.516v-0.029c-0.942-0.352-1.456-1.118-1.456-2.118
		c0-1.766,1.148-2.81,3.207-2.81c2.059,0,3.207,1.044,3.207,2.81c0,1-0.516,1.765-1.458,2.118v0.029
		c1.163,0.294,1.883,1.22,1.883,2.516c0,2.016-1.545,3.236-3.633,3.236C226.217,114.889,224.673,113.668,224.673,111.652z
		 M230.262,111.652c0-1.133-0.839-1.812-1.956-1.812c-1.118,0-1.957,0.679-1.957,1.812c0,1.22,0.838,1.913,1.957,1.913
		S230.262,112.874,230.262,111.652z M226.688,107.078c0,0.985,0.677,1.515,1.618,1.515c0.94,0,1.617-0.531,1.617-1.515
		c0-1.015-0.72-1.575-1.617-1.575C227.409,105.503,226.688,106.063,226.688,107.078z"/>
	<path fill="#FFFFFF" d="M236.565,104.181h1.677v3.883h0.029c0.471-0.736,1.397-1.191,2.265-1.191c2.398,0,3.561,1.809,3.561,4.044
		c0,2.061-1.044,3.972-3.281,3.972c-1.029,0-2.133-0.25-2.634-1.251h-0.029v1.045h-1.588V104.181z M240.316,108.196
		c-1.412,0-2.134,1.058-2.134,2.689c0,1.531,0.781,2.68,2.134,2.68c1.529,0,2.103-1.354,2.103-2.68
		C242.418,109.519,241.698,108.196,240.316,108.196z"/>
	<path fill="#FFFFFF" d="M246.764,111.315c0,1.189,0.647,2.25,2.044,2.25c0.987,0,1.56-0.428,1.854-1.267h1.588
		c-0.354,1.663-1.794,2.59-3.443,2.59c-2.398,0-3.721-1.648-3.721-4.003c0-2.164,1.412-4.013,3.677-4.013
		c2.398,0,3.869,2.163,3.589,4.443H246.764z M250.676,110.21c-0.074-1.058-0.765-2.014-1.912-2.014c-1.161,0-1.956,0.882-2,2.014
		H250.676z"/>
	<path fill="#FFFFFF" d="M252.666,107.078h1.265v-2.28h1.677v2.28h1.515v1.25h-1.515v4.061c0,0.692,0.06,1.046,0.809,1.046
		c0.235,0,0.471,0,0.706-0.06v1.296c-0.368,0.043-0.72,0.086-1.088,0.086c-1.765,0-2.06-0.677-2.103-1.94v-4.488h-1.265
		L252.666,107.078L252.666,107.078z"/>
	<path fill="#FFFFFF" d="M264.569,112.991c0,0.413,0.088,0.574,0.398,0.574h0.176c0.074,0,0.147-0.016,0.236-0.029v1.162
		c-0.25,0.088-0.779,0.19-1.059,0.19c-0.691,0-1.162-0.236-1.294-0.927c-0.663,0.646-1.736,0.927-2.633,0.927
		c-1.368,0-2.603-0.735-2.603-2.223c0-1.898,1.514-2.208,2.927-2.37c1.221-0.234,2.28-0.073,2.28-1.073
		c0-0.884-0.913-1.031-1.573-1.031c-0.942,0-1.604,0.383-1.677,1.207h-1.676c0.117-1.957,1.765-2.531,3.456-2.531
		c1.485,0,3.044,0.603,3.044,2.207L264.569,112.991L264.569,112.991z M262.893,110.873c-0.514,0.339-1.308,0.324-2.059,0.456
		c-0.721,0.117-1.369,0.384-1.369,1.265c0,0.765,0.958,0.972,1.545,0.972c0.735,0,1.882-0.385,1.882-1.443L262.893,110.873
		L262.893,110.873z"/>
</g>
</svg>
